{"glyphs":{"0":{"ha":993,"x_min":86,"x_max":907,"o":"m 793 130 q 736 57 793 130 q 496 -17 679 -17 q 199 128 313 -17 q 86 486 86 274 q 201 842 86 696 q 499 989 315 989 q 794 844 682 989 q 907 486 907 699 q 793 130 907 276 m 283 202 q 325 143 283 202 q 499 83 367 83 q 712 201 631 83 q 793 486 793 318 q 710 770 793 651 q 496 889 628 889 q 282 772 364 889 q 200 486 200 654 q 283 202 200 321 z "},"1":{"ha":497,"x_min":39,"x_max":357,"o":"m 249 0 l 249 865 l 65 808 l 39 897 l 276 979 l 357 979 l 357 0 l 249 0 z "},"2":{"ha":832,"x_min":67,"x_max":746,"o":"m 67 0 l 67 85 l 419 396 q 578 563 533 496 q 622 701 622 629 q 565 836 622 785 q 426 888 508 888 q 287 847 347 888 q 165 721 226 807 l 85 779 q 235 935 156 885 q 435 986 314 986 q 651 908 565 986 q 736 708 736 829 q 682 531 736 608 q 490 331 628 453 l 231 100 l 746 100 l 746 0 l 67 0 z "},"3":{"ha":851,"x_min":69,"x_max":757,"o":"m 432 -17 q 69 157 203 -17 l 149 228 q 433 83 267 83 q 585 136 524 83 q 646 275 646 189 q 571 413 646 364 q 374 463 496 463 l 311 463 l 289 528 l 596 874 l 121 874 l 121 972 l 742 972 l 742 892 l 436 553 q 666 473 575 542 q 757 276 757 404 q 663 66 757 149 q 432 -17 569 -17 z "},"4":{"ha":932,"x_min":60,"x_max":857,"o":"m 600 0 l 600 231 l 88 231 l 60 310 l 610 979 l 706 979 l 706 322 l 857 322 l 857 231 l 706 231 l 706 0 l 600 0 m 192 322 l 600 322 l 600 824 l 192 322 z "},"5":{"ha":850,"x_min":74,"x_max":768,"o":"m 421 -17 q 74 138 228 -17 l 146 217 q 422 83 283 83 q 592 144 526 83 q 657 301 657 206 q 590 449 657 392 q 415 506 522 506 q 211 450 315 506 l 138 499 l 165 972 l 725 972 l 725 871 l 261 871 l 240 560 q 432 603 339 603 q 673 522 578 603 q 768 303 768 440 q 671 72 768 161 q 421 -17 574 -17 z "},"6":{"ha":899,"x_min":85,"x_max":811,"o":"m 463 -17 q 186 99 288 -17 q 85 461 85 214 q 194 839 85 689 q 489 989 303 989 q 776 878 640 989 l 713 793 q 483 889 599 889 q 276 771 354 889 q 199 464 199 653 l 199 460 q 475 608 300 608 q 713 525 615 608 q 811 307 811 442 q 711 75 811 167 q 463 -17 611 -17 m 464 81 q 634 144 569 81 q 699 306 699 208 q 632 455 699 396 q 461 514 565 514 q 287 449 356 514 q 218 299 218 385 q 288 143 218 206 q 464 81 357 81 z "},"7":{"ha":828,"x_min":94,"x_max":754,"o":"m 190 0 l 629 872 l 94 872 l 94 972 l 754 972 l 754 890 l 313 0 l 190 0 z "},"8":{"ha":875,"x_min":72,"x_max":803,"o":"m 699 63 q 647 25 699 63 q 438 -14 594 -14 q 176 64 281 -14 q 72 264 72 142 q 126 408 72 347 q 272 503 181 469 q 106 729 106 579 q 203 913 106 839 q 438 986 301 986 q 672 913 574 986 q 769 726 769 839 q 603 503 769 579 q 803 263 803 428 q 699 63 803 140 m 279 592 q 311 567 279 592 q 438 542 343 542 q 596 592 532 542 q 660 722 660 642 q 596 842 660 794 q 438 890 532 890 q 278 842 342 890 q 215 719 215 794 q 279 592 215 642 m 252 135 q 286 108 252 135 q 438 82 321 82 q 623 135 554 82 q 692 267 692 188 q 618 399 692 347 q 438 451 544 451 q 256 399 329 451 q 183 264 183 346 q 252 135 183 188 z "},"9":{"ha":899,"x_min":88,"x_max":814,"o":"m 410 -17 q 110 103 254 -17 l 174 188 q 413 83 292 83 q 622 199 542 83 q 701 497 701 315 l 701 510 q 426 354 604 354 q 182 440 276 354 q 88 658 88 525 q 186 894 88 799 q 438 989 285 989 q 712 874 610 989 q 814 510 814 758 q 701 131 814 278 q 410 -17 589 -17 m 439 449 q 613 515 546 449 q 681 671 681 582 q 611 828 681 765 q 433 892 542 892 q 264 824 328 892 q 200 661 200 757 q 267 508 200 568 q 439 449 333 449 z "}," ":{"ha":417,"x_min":0,"x_max":0,"o":""},"!":{"ha":376,"x_min":125,"x_max":253,"o":"m 158 275 l 126 893 l 126 972 l 251 972 l 251 893 l 218 275 l 158 275 m 125 0 l 125 146 l 253 146 l 253 0 l 125 0 z "},"\"":{"ha":611,"x_min":90,"x_max":532,"o":"m 361 594 l 404 972 l 532 972 l 532 965 l 419 594 l 361 594 m 90 594 l 132 972 l 261 972 l 261 965 l 149 594 l 90 594 z "},"#":{"ha":972,"x_min":63,"x_max":908,"o":"m 172 0 l 214 246 l 63 246 l 63 342 l 231 342 l 282 636 l 117 636 l 117 732 l 297 732 l 339 972 l 436 972 l 396 732 l 660 732 l 701 972 l 799 972 l 758 732 l 908 732 l 908 636 l 742 636 l 690 342 l 854 342 l 854 246 l 675 246 l 632 0 l 535 0 l 576 246 l 313 246 l 269 0 l 172 0 m 329 342 l 593 342 l 643 636 l 379 636 l 329 342 z "},"$":{"ha":883,"x_min":78,"x_max":790,"o":"m 406 -136 l 406 3 q 78 146 226 19 l 140 229 q 410 97 271 113 l 410 444 q 184 544 254 482 q 114 717 114 607 q 195 894 114 824 q 406 972 276 965 l 406 1053 l 494 1053 l 494 969 q 760 858 633 957 l 700 775 q 490 875 606 856 l 490 533 q 719 433 649 497 q 790 261 790 368 q 708 79 790 150 q 494 0 626 8 l 494 -136 l 406 -136 m 410 553 l 410 879 q 272 832 324 876 q 221 721 221 788 q 261 619 221 658 q 410 553 301 581 m 490 93 q 631 142 578 97 q 683 257 683 188 q 642 360 683 321 q 490 425 601 399 l 490 93 z "},"%":{"ha":1158,"x_min":72,"x_max":1085,"o":"m 450 560 q 419 523 450 560 q 292 486 388 486 q 134 559 196 486 q 72 735 72 632 q 135 910 72 836 q 294 983 197 983 q 451 910 390 983 q 513 735 513 838 q 450 560 513 633 m 172 0 l 886 972 l 985 972 l 272 0 l 172 0 m 864 -11 q 707 62 768 -11 q 646 238 646 135 q 708 413 646 339 q 867 486 771 486 q 1024 413 963 486 q 1085 238 1085 340 q 1023 62 1085 135 q 864 -11 961 -11 m 294 564 q 385 613 350 564 q 421 735 421 663 q 383 856 421 807 q 292 906 346 906 q 201 856 236 906 q 165 735 165 807 q 203 613 165 663 q 294 564 240 564 m 867 67 q 958 115 924 67 q 993 238 993 164 q 956 359 993 310 q 864 408 918 408 q 773 359 808 408 q 738 238 738 310 q 775 116 738 165 q 867 67 813 67 z "},"&":{"ha":967,"x_min":63,"x_max":922,"o":"m 839 -19 l 686 138 q 368 -14 546 -14 q 149 63 235 -14 q 63 261 63 139 q 297 542 63 450 q 223 651 246 601 q 200 758 200 700 q 272 922 200 856 q 457 989 343 989 q 626 924 558 989 q 693 767 693 860 q 464 514 693 594 l 686 288 q 803 504 749 378 l 893 463 q 753 218 819 306 l 922 44 l 839 -19 m 403 576 q 590 764 590 640 q 551 860 590 822 q 453 899 513 899 q 347 858 388 899 q 306 756 306 818 q 326 674 306 713 q 403 576 347 636 m 376 79 q 619 206 504 79 l 360 474 q 220 384 267 439 q 174 263 174 329 q 231 131 174 183 q 376 79 288 79 z "},"'":{"ha":340,"x_min":90,"x_max":263,"o":"m 90 594 l 132 972 l 263 972 l 263 965 l 150 594 l 90 594 z "},"(":{"ha":603,"x_min":94,"x_max":525,"o":"m 479 -196 q 94 399 94 21 q 479 993 94 776 l 525 922 q 203 399 203 717 q 525 -125 203 81 l 479 -196 z "},")":{"ha":603,"x_min":78,"x_max":508,"o":"m 124 -196 l 78 -125 q 400 399 400 81 q 78 922 400 717 l 124 993 q 508 399 508 776 q 124 -196 508 21 z "},"*":{"ha":597,"x_min":96,"x_max":501,"o":"m 263 551 l 276 725 l 133 624 l 96 689 l 257 763 l 96 838 l 133 901 l 276 801 l 263 975 l 335 975 l 321 801 l 464 901 l 501 838 l 340 763 l 501 689 l 464 624 l 321 725 l 335 551 l 263 551 z "},"+":{"ha":889,"x_min":104,"x_max":785,"o":"m 393 153 l 393 439 l 104 439 l 104 539 l 393 539 l 393 825 l 496 825 l 496 539 l 785 539 l 785 439 l 496 439 l 496 153 l 393 153 z "},",":{"ha":340,"x_min":64,"x_max":235,"o":"m 81 -169 l 64 -121 q 157 -14 157 -86 l 157 0 l 107 0 l 107 146 l 235 146 l 235 21 q 198 -107 235 -62 q 81 -169 161 -151 z "},"-":{"ha":567,"x_min":90,"x_max":476,"o":"m 90 361 l 90 474 l 476 474 l 476 361 l 90 361 z "},".":{"ha":340,"x_min":107,"x_max":235,"o":"m 107 0 l 107 146 l 235 146 l 235 0 l 107 0 z "},"/":{"ha":706,"x_min":-29,"x_max":714,"o":"m -29 -178 l 615 1108 l 714 1108 l 69 -178 l -29 -178 z "},":":{"ha":354,"x_min":114,"x_max":242,"o":"m 114 572 l 114 718 l 242 718 l 242 572 l 114 572 m 114 0 l 114 146 l 242 146 l 242 0 l 114 0 z "},";":{"ha":354,"x_min":71,"x_max":242,"o":"m 114 572 l 114 718 l 242 718 l 242 572 l 114 572 m 88 -169 l 71 -121 q 164 -14 164 -86 l 164 0 l 114 0 l 114 146 l 242 146 l 242 21 q 205 -107 242 -62 q 88 -169 168 -151 z "},"<":{"ha":889,"x_min":100,"x_max":751,"o":"m 751 119 l 100 443 l 100 535 l 751 858 l 751 751 l 217 490 l 751 228 l 751 119 z "},"=":{"ha":889,"x_min":125,"x_max":764,"o":"m 125 600 l 125 703 l 764 703 l 764 600 l 125 600 m 125 275 l 125 378 l 764 378 l 764 275 l 125 275 z "},">":{"ha":889,"x_min":138,"x_max":789,"o":"m 138 119 l 138 226 l 672 488 l 138 750 l 138 858 l 789 535 l 789 443 l 138 119 z "},"?":{"ha":746,"x_min":42,"x_max":679,"o":"m 306 275 l 285 500 l 292 507 q 497 563 425 510 q 568 706 568 615 q 513 834 568 782 q 365 886 457 886 q 113 756 225 886 l 42 824 q 368 985 175 985 q 593 907 507 985 q 679 707 679 829 q 599 513 679 583 q 390 425 518 443 l 376 275 l 306 275 m 276 0 l 276 146 l 404 146 l 404 0 l 276 0 z "},"@":{"ha":1361,"x_min":74,"x_max":1288,"o":"m 693 -225 q 251 -48 429 -225 q 74 381 74 129 q 251 810 74 631 q 682 989 428 989 q 1110 824 933 989 q 1288 439 1288 660 q 1210 186 1288 274 q 1028 99 1133 99 q 904 130 954 99 q 833 215 854 161 q 604 99 735 99 q 428 169 500 99 q 356 351 356 239 q 455 596 356 494 q 676 697 554 697 q 879 582 814 697 l 897 678 l 990 665 l 935 350 q 925 265 925 296 q 956 183 925 213 q 1043 153 988 153 q 1181 226 1124 153 q 1238 439 1238 300 q 1076 789 1238 636 q 682 942 914 942 q 284 778 444 942 q 124 381 124 614 q 285 -16 124 146 q 693 -178 446 -178 q 1039 -83 878 -178 l 1061 -121 q 693 -225 890 -225 m 625 185 q 783 260 714 185 q 853 435 853 336 q 805 561 853 511 q 683 611 757 611 q 524 538 593 611 q 456 358 456 464 q 503 231 456 278 q 625 185 550 185 z "},"A":{"ha":1097,"x_min":54,"x_max":1043,"o":"m 54 0 l 497 979 l 600 979 l 1043 0 l 925 0 l 811 257 l 282 257 l 167 0 l 54 0 m 325 356 l 768 356 l 547 851 l 325 356 z "},"B":{"ha":1003,"x_min":138,"x_max":922,"o":"m 138 0 l 138 972 l 551 972 q 806 886 722 972 q 868 728 868 821 q 714 503 868 569 q 922 265 922 440 q 826 71 922 142 q 569 0 731 0 l 138 0 m 246 539 l 533 539 q 696 585 635 539 q 757 715 757 631 q 701 831 757 789 q 542 874 644 874 l 246 874 l 246 539 m 246 99 l 572 99 q 747 145 683 99 q 811 275 811 192 q 745 399 811 356 q 553 442 679 442 l 246 442 l 246 99 z "},"C":{"ha":1025,"x_min":94,"x_max":971,"o":"m 582 -17 q 233 128 372 -17 q 94 486 94 274 q 235 842 94 696 q 586 989 375 989 q 794 949 708 989 q 963 832 881 910 l 890 754 q 585 888 750 888 q 316 772 424 888 q 208 486 208 657 q 317 201 208 317 q 585 85 425 85 q 751 119 679 85 q 899 225 824 154 l 971 149 q 799 25 889 67 q 582 -17 708 -17 z "},"D":{"ha":1086,"x_min":138,"x_max":992,"o":"m 138 0 l 138 972 l 475 972 q 847 834 703 972 q 992 486 992 696 q 847 139 992 278 q 475 0 701 0 l 138 0 m 247 101 l 475 101 q 767 210 657 101 q 878 486 878 319 q 767 761 878 651 q 475 871 656 871 l 247 871 l 247 101 z "},"E":{"ha":931,"x_min":138,"x_max":847,"o":"m 138 0 l 138 972 l 840 972 l 840 872 l 247 872 l 247 540 l 778 540 l 778 440 l 247 440 l 247 100 l 847 100 l 847 0 l 138 0 z "},"F":{"ha":911,"x_min":138,"x_max":836,"o":"m 138 0 l 138 972 l 836 972 l 836 871 l 247 871 l 247 524 l 774 524 l 774 424 l 247 424 l 247 0 l 138 0 z "},"G":{"ha":1089,"x_min":94,"x_max":979,"o":"m 979 132 q 589 -17 813 -17 q 230 127 365 -17 q 94 486 94 271 q 232 840 94 692 q 582 989 369 989 q 783 957 699 989 q 944 860 867 925 l 874 776 q 578 888 746 888 q 313 770 418 888 q 208 486 208 653 q 313 196 208 310 q 593 82 418 82 q 874 179 754 82 l 874 421 l 578 421 l 578 519 l 979 519 l 979 132 z "},"H":{"ha":1056,"x_min":138,"x_max":918,"o":"m 138 0 l 138 972 l 247 972 l 247 540 l 808 540 l 808 972 l 918 972 l 918 0 l 808 0 l 808 438 l 247 438 l 247 0 l 138 0 z "},"I":{"ha":404,"x_min":147,"x_max":257,"o":"m 147 0 l 147 972 l 257 972 l 257 0 l 147 0 z "},"J":{"ha":768,"x_min":43,"x_max":646,"o":"m 343 -14 q 43 158 149 -14 l 122 226 q 220 122 169 156 q 344 88 271 88 q 482 148 429 88 q 535 321 535 208 l 535 972 l 646 972 l 646 322 q 557 67 646 156 q 343 -14 474 -14 z "},"K":{"ha":999,"x_min":138,"x_max":965,"o":"m 138 0 l 138 972 l 247 972 l 247 392 l 806 972 l 947 972 l 531 547 l 965 0 l 828 0 l 454 471 l 247 261 l 247 0 l 138 0 z "},"L":{"ha":860,"x_min":138,"x_max":794,"o":"m 138 0 l 138 972 l 247 972 l 247 101 l 794 101 l 794 0 l 138 0 z "},"M":{"ha":1206,"x_min":138,"x_max":1068,"o":"m 138 0 l 138 972 l 249 972 l 603 442 l 957 972 l 1068 972 l 1068 0 l 958 0 l 958 788 l 604 267 l 599 267 l 244 786 l 244 0 l 138 0 z "},"N":{"ha":1097,"x_min":138,"x_max":960,"o":"m 138 0 l 138 972 l 240 972 l 853 193 l 853 972 l 960 972 l 960 0 l 872 0 l 244 797 l 244 0 l 138 0 z "},"O":{"ha":1181,"x_min":94,"x_max":1086,"o":"m 946 131 q 876 57 946 131 q 589 -17 806 -17 q 233 131 372 -17 q 94 486 94 278 q 235 841 94 693 q 592 989 375 989 q 947 842 808 989 q 1086 486 1086 694 q 946 131 1086 279 m 317 201 q 372 143 317 201 q 592 85 426 85 q 865 201 757 85 q 972 486 972 317 q 863 771 972 654 q 589 888 754 888 q 316 772 424 888 q 208 486 208 656 q 317 201 208 318 z "},"P":{"ha":928,"x_min":138,"x_max":865,"o":"m 138 0 l 138 972 l 501 972 q 767 889 668 972 q 865 661 865 806 q 756 426 865 510 q 483 343 647 343 l 247 343 l 247 0 l 138 0 m 247 443 l 488 443 q 681 502 608 443 q 754 660 754 561 q 684 816 754 761 q 493 871 614 871 l 247 871 l 247 443 z "},"Q":{"ha":1181,"x_min":94,"x_max":1099,"o":"m 1024 -29 l 896 88 q 589 -17 765 -17 q 233 131 372 -17 q 94 486 94 278 q 235 841 94 693 q 592 989 375 989 q 947 842 808 989 q 1086 486 1086 694 q 969 160 1086 299 l 1099 53 l 1024 -29 m 592 85 q 815 158 719 85 l 635 313 l 708 394 l 888 232 q 972 486 972 342 q 863 771 972 654 q 589 888 754 888 q 316 772 424 888 q 208 486 208 656 q 317 201 208 318 q 592 85 426 85 z "},"R":{"ha":1004,"x_min":138,"x_max":942,"o":"m 138 0 l 138 972 l 556 972 q 832 875 735 972 q 907 681 907 800 q 835 492 907 564 q 643 397 763 419 l 942 0 l 807 0 l 525 378 l 247 378 l 247 0 l 138 0 m 247 476 l 546 476 q 726 531 657 476 q 796 679 796 585 q 730 820 796 769 q 547 871 664 871 l 247 871 l 247 476 z "},"S":{"ha":889,"x_min":74,"x_max":803,"o":"m 471 -14 q 74 142 247 -14 l 142 222 q 298 118 219 151 q 475 85 376 85 q 632 131 572 85 q 692 253 692 178 q 639 365 692 324 q 439 438 586 407 q 189 539 265 475 q 113 721 113 603 q 203 911 113 836 q 432 986 293 986 q 774 867 625 986 l 710 782 q 429 888 581 888 q 279 842 336 888 q 222 728 222 797 q 277 614 222 656 q 486 539 332 572 q 727 438 651 503 q 803 261 803 374 q 710 62 803 138 q 471 -14 617 -14 z "},"T":{"ha":900,"x_min":68,"x_max":832,"o":"m 394 0 l 394 871 l 68 871 l 68 972 l 832 972 l 832 871 l 506 871 l 506 0 l 394 0 z "},"U":{"ha":1054,"x_min":122,"x_max":932,"o":"m 526 -15 q 232 95 342 -15 q 122 407 122 206 l 122 972 l 232 972 l 232 414 q 310 172 232 257 q 529 86 389 86 q 744 168 667 86 q 822 407 822 250 l 822 972 l 932 972 l 932 415 q 822 96 932 207 q 526 -15 713 -15 z "},"V":{"ha":1042,"x_min":54,"x_max":988,"o":"m 472 -7 l 54 972 l 176 972 l 522 135 l 869 972 l 988 972 l 569 -7 l 472 -7 z "},"W":{"ha":1538,"x_min":63,"x_max":1476,"o":"m 410 -7 l 63 972 l 182 972 l 460 163 l 726 975 l 817 975 l 1083 163 l 1361 972 l 1476 972 l 1129 -7 l 1036 -7 l 769 782 l 501 -7 l 410 -7 z "},"X":{"ha":1007,"x_min":64,"x_max":943,"o":"m 64 0 l 438 496 l 78 972 l 207 972 l 506 575 l 801 972 l 929 972 l 569 497 l 943 0 l 813 0 l 501 418 l 190 0 l 64 0 z "},"Y":{"ha":994,"x_min":38,"x_max":957,"o":"m 442 0 l 442 385 l 38 972 l 171 972 l 499 486 l 829 972 l 957 972 l 553 386 l 553 0 l 442 0 z "},"Z":{"ha":963,"x_min":93,"x_max":872,"o":"m 93 0 l 93 74 l 722 874 l 114 874 l 114 972 l 872 972 l 872 899 l 242 99 l 872 99 l 872 0 l 93 0 z "},"[":{"ha":610,"x_min":131,"x_max":528,"o":"m 131 -181 l 131 972 l 528 972 l 528 889 l 232 889 l 232 -97 l 528 -97 l 528 -181 l 131 -181 z "},"\\":{"ha":706,"x_min":-8,"x_max":735,"o":"m 636 -178 l -8 1108 l 90 1108 l 735 -178 l 636 -178 z "},"]":{"ha":610,"x_min":82,"x_max":479,"o":"m 82 -181 l 82 -97 l 379 -97 l 379 889 l 82 889 l 82 972 l 479 972 l 479 -181 l 82 -181 z "},"^":{"ha":694,"x_min":90,"x_max":604,"o":"m 90 685 l 306 975 l 389 975 l 604 685 l 510 685 l 346 899 l 182 685 l 90 685 z "},"_":{"ha":833,"x_min":-3,"x_max":836,"o":"m -3 -222 l -3 -135 l 836 -135 l 836 -222 l -3 -222 z "},"`":{"ha":694,"x_min":200,"x_max":443,"o":"m 357 826 l 200 976 l 311 1028 l 443 826 l 357 826 z "},"a":{"ha":804,"x_min":65,"x_max":697,"o":"m 333 -15 q 144 44 224 -15 q 65 211 65 104 q 149 385 65 324 q 372 446 232 446 q 592 415 483 446 l 592 438 q 536 582 592 532 q 379 632 481 632 q 161 581 274 632 l 129 668 q 390 729 263 729 q 622 650 543 729 q 697 439 697 575 l 697 0 l 592 0 l 592 107 q 333 -15 496 -15 m 354 71 q 524 125 454 71 q 593 264 593 179 l 593 331 q 383 361 488 361 q 229 322 285 361 q 174 214 174 282 q 226 110 174 149 q 354 71 278 71 z "},"b":{"ha":922,"x_min":119,"x_max":844,"o":"m 501 -15 q 226 138 332 -15 l 226 0 l 119 0 l 119 1014 l 226 1014 l 226 574 q 501 733 335 733 q 742 631 639 733 q 844 358 844 529 q 742 88 844 190 q 501 -15 639 -15 m 482 81 q 663 156 590 81 q 735 360 735 232 q 661 560 735 483 q 482 638 588 638 q 300 558 378 638 q 222 358 222 479 q 300 159 222 238 q 482 81 378 81 z "},"c":{"ha":793,"x_min":75,"x_max":736,"o":"m 443 -17 q 181 94 288 -17 q 75 358 75 204 q 181 623 75 513 q 443 733 288 733 q 731 606 610 733 l 663 533 q 442 639 563 639 q 259 558 333 639 q 185 358 185 476 q 260 160 185 242 q 449 79 336 79 q 665 188 564 79 l 736 122 q 443 -17 611 -17 z "},"d":{"ha":922,"x_min":78,"x_max":803,"o":"m 421 -15 q 181 87 283 -15 q 78 360 78 189 q 181 631 78 528 q 421 733 283 733 q 696 581 590 733 l 696 1014 l 803 1014 l 803 0 l 696 0 l 696 144 q 421 -15 588 -15 m 440 81 q 622 160 544 81 q 700 361 700 239 q 622 559 700 481 q 440 638 544 638 q 260 562 332 638 q 188 358 188 486 q 261 158 188 235 q 440 81 335 81 z "},"e":{"ha":822,"x_min":75,"x_max":754,"o":"m 183 315 q 266 141 194 206 q 436 76 338 76 q 663 178 565 76 l 729 118 q 433 -17 608 -17 q 178 88 282 -17 q 75 358 75 193 q 174 624 75 515 q 419 733 272 733 q 664 625 574 733 q 754 353 754 517 q 753 315 754 332 l 183 315 m 183 401 l 646 401 q 577 574 636 506 q 417 643 518 643 q 260 575 325 643 q 183 401 194 507 z "},"f":{"ha":510,"x_min":61,"x_max":494,"o":"m 160 0 l 160 624 l 61 624 l 61 717 l 160 717 l 160 779 q 222 964 160 901 q 376 1019 278 1019 q 494 1001 444 1019 l 494 908 q 390 926 431 926 q 265 774 265 926 l 265 715 l 493 715 l 493 624 l 267 624 l 267 0 l 160 0 z "},"g":{"ha":922,"x_min":78,"x_max":803,"o":"m 438 -225 q 111 -125 256 -225 l 160 -42 q 436 -133 286 -133 q 627 -67 557 -133 q 697 122 697 -1 l 697 207 q 415 56 583 56 q 178 149 279 56 q 78 394 78 243 q 179 640 78 546 q 415 733 281 733 q 696 589 588 733 l 696 718 l 803 718 l 803 125 q 711 -129 803 -37 q 438 -225 615 -225 m 436 150 q 621 219 542 150 q 700 396 700 289 q 622 571 700 503 q 436 639 543 639 q 259 572 331 639 q 188 394 188 504 q 260 219 188 289 q 436 150 333 150 z "},"h":{"ha":856,"x_min":119,"x_max":747,"o":"m 119 0 l 119 1014 l 226 1014 l 226 593 q 472 733 311 733 q 674 655 600 733 q 747 446 747 576 l 747 0 l 640 0 l 640 419 q 588 578 640 521 q 442 636 536 636 q 288 574 349 636 q 226 411 226 511 l 226 0 l 119 0 z "},"i":{"ha":365,"x_min":122,"x_max":244,"o":"m 122 875 l 122 993 l 244 993 l 244 875 l 122 875 m 129 0 l 129 718 l 236 718 l 236 0 l 129 0 z "},"j":{"ha":365,"x_min":-6,"x_max":244,"o":"m 122 875 l 122 993 l 244 993 l 244 875 l 122 875 m 61 -226 q -6 -219 24 -226 l -6 -132 q 47 -136 19 -136 q 129 -40 129 -136 l 129 718 l 236 718 l 236 -42 q 190 -181 236 -135 q 61 -226 144 -226 z "},"k":{"ha":790,"x_min":119,"x_max":757,"o":"m 119 0 l 119 1014 l 226 1014 l 226 314 l 614 718 l 747 718 l 446 410 l 757 0 l 629 0 l 372 335 l 226 188 l 226 0 l 119 0 z "},"l":{"ha":365,"x_min":129,"x_max":236,"o":"m 129 0 l 129 1014 l 236 1014 l 236 0 l 129 0 z "},"m":{"ha":1321,"x_min":119,"x_max":1208,"o":"m 119 0 l 119 718 l 226 718 l 226 597 q 458 733 317 733 q 689 590 619 733 q 942 733 782 733 q 1137 656 1065 733 q 1208 444 1208 578 l 1208 0 l 1101 0 l 1101 419 q 1052 580 1101 524 q 915 636 1003 636 q 774 576 831 636 q 717 414 717 517 l 717 0 l 611 0 l 611 422 q 562 579 611 522 q 426 636 513 636 q 283 572 340 636 q 226 410 226 508 l 226 0 l 119 0 z "},"n":{"ha":856,"x_min":119,"x_max":747,"o":"m 119 0 l 119 718 l 226 718 l 226 593 q 472 733 311 733 q 674 655 600 733 q 747 446 747 576 l 747 0 l 640 0 l 640 419 q 588 578 640 521 q 442 636 536 636 q 288 574 349 636 q 226 411 226 511 l 226 0 l 119 0 z "},"o":{"ha":897,"x_min":75,"x_max":824,"o":"m 715 94 q 661 39 715 94 q 447 -17 607 -17 q 181 93 288 -17 q 75 358 75 203 q 183 623 75 513 q 450 733 290 733 q 717 624 610 733 q 824 358 824 514 q 715 94 824 204 m 450 79 q 640 160 565 79 q 714 358 714 240 q 637 557 714 475 q 447 639 560 639 q 258 558 332 639 q 185 358 185 476 q 261 160 185 242 q 450 79 338 79 z "},"p":{"ha":922,"x_min":119,"x_max":844,"o":"m 119 -222 l 119 718 l 226 718 l 226 574 q 501 733 335 733 q 742 631 639 733 q 844 358 844 529 q 742 88 844 190 q 501 -15 639 -15 q 226 138 332 -15 l 226 -222 l 119 -222 m 482 81 q 663 156 590 81 q 735 360 735 232 q 661 560 735 483 q 482 638 588 638 q 300 558 378 638 q 222 358 222 479 q 300 159 222 238 q 482 81 378 81 z "},"q":{"ha":922,"x_min":78,"x_max":803,"o":"m 696 -222 l 696 144 q 421 -15 588 -15 q 181 87 283 -15 q 78 360 78 189 q 181 631 78 528 q 421 733 283 733 q 696 581 590 733 l 696 718 l 803 718 l 803 -222 l 696 -222 m 440 81 q 622 160 544 81 q 700 361 700 239 q 622 559 700 481 q 440 638 544 638 q 260 562 332 638 q 188 358 188 486 q 261 158 188 235 q 440 81 335 81 z "},"r":{"ha":563,"x_min":119,"x_max":519,"o":"m 119 0 l 119 718 l 226 718 l 226 531 q 344 679 268 624 q 519 731 421 735 l 519 615 l 511 615 q 307 529 388 615 q 226 286 226 443 l 226 0 l 119 0 z "},"s":{"ha":692,"x_min":60,"x_max":613,"o":"m 357 -14 q 199 15 279 -14 q 60 92 119 43 l 114 168 q 363 76 236 76 q 469 108 428 76 q 511 193 511 140 q 466 268 511 242 q 332 319 421 294 q 246 347 278 335 q 174 383 214 360 q 114 441 133 406 q 94 525 94 476 q 163 674 94 617 q 339 731 232 731 q 597 651 478 731 l 549 571 q 336 640 442 640 q 235 610 274 640 q 197 533 197 581 q 208 497 197 514 q 233 469 219 481 q 277 446 247 458 q 325 428 307 433 q 382 410 343 422 q 467 381 433 394 q 538 343 500 367 q 594 284 575 319 q 613 201 613 249 q 540 44 613 101 q 357 -14 468 -14 z "},"t":{"ha":561,"x_min":57,"x_max":492,"o":"m 360 -12 q 212 37 267 -12 q 157 190 157 86 l 157 624 l 57 624 l 57 718 l 157 718 l 157 935 l 264 935 l 264 718 l 492 718 l 492 624 l 264 624 l 264 204 q 385 85 264 85 q 489 110 438 85 l 489 18 q 360 -12 431 -12 z "},"u":{"ha":856,"x_min":108,"x_max":735,"o":"m 383 -15 q 182 63 256 -15 q 108 272 108 142 l 108 718 l 215 718 l 215 299 q 267 140 215 197 q 414 82 319 82 q 568 144 507 82 q 629 307 629 207 l 629 718 l 735 718 l 735 0 l 629 0 l 629 125 q 383 -15 542 -15 z "},"v":{"ha":815,"x_min":49,"x_max":767,"o":"m 360 -6 l 49 718 l 167 718 l 408 122 l 651 718 l 767 718 l 454 -6 l 360 -6 z "},"w":{"ha":1196,"x_min":58,"x_max":1138,"o":"m 310 -6 l 58 718 l 172 718 l 361 142 l 554 721 l 643 721 l 838 142 l 1026 718 l 1138 718 l 885 -6 l 792 -6 l 599 561 l 404 -6 l 310 -6 z "},"x":{"ha":797,"x_min":54,"x_max":743,"o":"m 54 0 l 336 365 l 65 718 l 188 718 l 400 440 l 613 718 l 732 718 l 460 368 l 743 0 l 619 0 l 397 293 l 174 0 l 54 0 z "},"y":{"ha":821,"x_min":47,"x_max":771,"o":"m 231 -226 q 78 -190 153 -226 l 114 -106 q 226 -132 165 -132 q 308 -102 275 -132 q 374 3 342 -72 l 47 718 l 165 718 l 426 119 l 657 718 l 771 718 l 469 -24 q 368 -180 424 -133 q 231 -226 313 -226 z "},"z":{"ha":772,"x_min":78,"x_max":700,"o":"m 78 0 l 78 68 l 554 628 l 94 628 l 94 718 l 700 718 l 700 650 l 222 90 l 700 90 l 700 0 l 78 0 z "},"{":{"ha":671,"x_min":78,"x_max":594,"o":"m 578 -196 q 339 -99 401 -164 q 276 85 276 -33 q 277 136 276 94 q 278 190 278 178 q 241 316 278 275 q 114 357 204 357 l 78 357 l 78 440 l 114 440 q 241 481 204 440 q 278 607 278 522 q 277 661 278 619 q 276 713 276 703 q 339 896 276 831 q 578 993 401 961 l 594 922 q 417 842 456 886 q 378 699 378 799 q 378 647 378 685 q 379 594 379 610 q 342 466 379 511 q 235 399 306 421 q 344 331 308 375 q 379 203 379 286 q 378 150 379 188 q 378 99 378 113 q 417 -45 378 -1 q 594 -125 456 -89 l 578 -196 z "},"|":{"ha":421,"x_min":165,"x_max":256,"o":"m 165 -178 l 165 1108 l 256 1108 l 256 -178 l 165 -178 z "},"}":{"ha":671,"x_min":75,"x_max":592,"o":"m 93 -196 l 75 -125 q 254 -45 215 -89 q 293 99 293 -1 q 292 150 293 113 q 292 203 292 188 q 328 331 292 286 q 436 399 365 376 q 327 467 363 422 q 292 594 292 511 q 292 647 292 610 q 293 699 293 685 q 254 842 293 799 q 75 922 215 886 l 93 993 q 332 896 269 961 q 394 713 394 831 q 394 661 394 703 q 393 607 393 619 q 430 481 393 522 q 556 440 467 440 l 592 440 l 592 357 l 556 357 q 430 316 467 357 q 393 190 393 275 q 394 136 393 178 q 394 85 394 94 q 332 -99 394 -33 q 93 -196 269 -164 z "},"~":{"ha":657,"x_min":101,"x_max":556,"o":"m 167 329 l 101 347 q 153 460 122 426 q 233 494 183 494 q 331 466 265 494 q 419 438 397 438 q 460 452 446 438 q 492 507 475 467 l 556 489 q 505 376 535 410 q 425 342 475 342 q 326 370 392 342 q 239 399 261 399 q 198 384 213 399 q 167 329 183 369 z "}," ":{"ha":417,"x_min":0,"x_max":0,"o":""},"¡":{"ha":376,"x_min":125,"x_max":253,"o":"m 126 0 l 126 79 l 158 697 l 218 697 l 251 79 l 251 0 l 126 0 m 125 826 l 125 972 l 253 972 l 253 826 l 125 826 z "},"¢":{"ha":807,"x_min":81,"x_max":740,"o":"m 294 -8 l 325 139 q 148 274 215 178 q 81 493 81 371 q 188 758 81 647 q 449 868 294 868 l 467 868 l 488 981 l 578 981 l 553 856 q 736 739 650 829 l 667 667 q 531 760 596 739 l 424 215 q 453 214 433 214 q 674 321 574 214 l 740 258 q 447 118 617 118 q 410 119 422 118 l 385 -8 l 294 -8 m 347 235 l 451 772 l 446 772 q 263 692 338 772 q 189 493 189 611 q 232 338 189 407 q 347 235 275 268 z "},"£":{"ha":894,"x_min":93,"x_max":814,"o":"m 93 0 l 93 64 l 210 93 l 210 410 l 93 410 l 93 506 l 210 506 l 210 656 q 297 903 210 815 q 517 986 381 986 q 814 836 699 986 l 729 769 q 635 856 683 826 q 515 885 586 885 q 379 833 433 885 q 319 656 319 775 l 319 506 l 707 506 l 707 410 l 319 410 l 319 97 l 813 97 l 813 0 l 93 0 z "},"¤":{"ha":1000,"x_min":78,"x_max":928,"o":"m 597 -17 q 347 78 451 -17 q 204 329 242 172 l 78 329 l 78 417 l 190 417 q 188 486 188 439 q 193 567 188 535 l 78 567 l 78 653 l 208 653 q 351 896 249 803 q 590 989 454 989 q 925 799 797 989 l 842 739 q 728 853 786 817 q 586 890 671 890 q 425 825 496 890 q 321 653 354 760 l 678 653 l 678 567 l 303 567 q 297 486 297 538 q 300 417 297 461 l 678 417 l 678 329 l 318 329 q 425 149 350 215 q 601 82 500 82 q 737 122 679 82 q 849 242 794 163 l 928 186 q 785 37 864 90 q 597 -17 707 -17 z "},"¥":{"ha":953,"x_min":38,"x_max":915,"o":"m 424 0 l 424 161 l 139 161 l 139 247 l 424 247 l 424 369 l 139 369 l 139 456 l 390 456 l 38 972 l 168 972 l 478 497 l 790 972 l 915 972 l 561 456 l 814 456 l 814 369 l 529 369 l 529 247 l 814 247 l 814 161 l 529 161 l 529 0 l 424 0 z "},"¦":{"ha":308,"x_min":101,"x_max":206,"o":"m 101 -124 l 101 224 l 206 224 l 206 -124 l 101 -124 m 101 571 l 101 918 l 206 918 l 206 571 l 101 571 z "},"§":{"ha":878,"x_min":86,"x_max":792,"o":"m 456 -14 q 138 118 267 -14 l 207 185 q 458 78 317 78 q 565 103 529 78 q 601 172 601 129 q 551 241 601 211 q 375 300 500 271 q 151 383 217 338 q 86 500 86 428 q 136 603 86 563 q 269 658 186 644 q 167 801 167 711 q 236 935 167 885 q 422 986 306 986 q 740 854 611 986 l 671 788 q 419 894 561 894 q 313 869 349 894 q 276 800 276 843 q 326 732 276 761 q 503 672 375 703 q 727 590 663 635 q 792 472 792 546 q 742 369 792 411 q 608 314 692 328 q 711 171 711 264 q 642 37 711 88 q 456 -14 572 -14 m 538 365 q 647 394 604 365 q 689 464 689 422 q 645 529 689 500 q 492 585 601 558 q 340 607 401 607 q 231 578 274 607 q 189 508 189 550 q 233 443 189 472 q 386 388 276 414 q 538 365 475 365 z "},"¨":{"ha":694,"x_min":163,"x_max":532,"o":"m 163 826 l 163 958 l 288 958 l 288 826 l 163 826 m 407 826 l 407 958 l 532 958 l 532 826 l 407 826 z "},"©":{"ha":1153,"x_min":74,"x_max":1079,"o":"m 932 131 q 858 57 932 131 q 575 -17 785 -17 q 219 131 365 -17 q 74 486 74 278 q 221 841 74 693 q 578 989 368 989 q 933 842 788 989 q 1079 486 1079 694 q 932 131 1079 279 m 575 26 q 901 162 769 26 q 1033 489 1033 297 q 902 813 1033 679 q 578 946 771 946 q 251 810 383 946 q 119 483 119 675 q 251 160 119 293 q 575 26 382 26 m 582 226 q 398 304 472 226 q 324 494 324 382 q 399 682 324 604 q 585 760 474 760 q 785 676 697 760 l 733 621 q 583 690 661 690 q 453 633 506 690 q 401 493 401 575 q 455 355 401 413 q 585 297 508 297 q 738 367 664 297 l 788 318 q 582 226 699 226 z "},"ª":{"ha":542,"x_min":81,"x_max":442,"o":"m 81 401 l 81 467 l 442 467 l 442 401 l 81 401 m 233 567 q 129 600 174 567 q 85 694 85 633 q 132 790 85 756 q 256 824 179 824 q 367 808 311 824 l 367 815 q 338 888 367 863 q 258 914 310 914 q 139 883 207 914 l 118 942 q 265 976 197 976 q 390 935 346 976 q 435 815 435 894 l 435 575 l 367 575 l 367 628 q 233 567 317 567 m 246 625 q 331 652 296 625 q 367 722 367 679 l 367 756 q 261 771 315 771 q 189 752 221 771 q 157 694 157 733 q 183 644 157 663 q 246 625 208 625 z "},"«":{"ha":764,"x_min":67,"x_max":682,"o":"m 292 57 l 67 354 l 67 365 l 292 661 l 374 615 l 186 361 l 374 104 l 292 57 m 601 57 l 376 354 l 376 365 l 601 661 l 682 615 l 494 361 l 682 104 l 601 57 z "},"¬":{"ha":889,"x_min":124,"x_max":764,"o":"m 660 351 l 660 599 l 124 599 l 124 703 l 764 703 l 764 351 l 660 351 z "},"­":{"ha":567,"x_min":90,"x_max":476,"o":"m 90 361 l 90 474 l 476 474 l 476 361 l 90 361 z "},"®":{"ha":1153,"x_min":74,"x_max":1079,"o":"m 932 131 q 858 57 932 131 q 575 -17 785 -17 q 219 131 365 -17 q 74 486 74 278 q 221 841 74 693 q 578 989 368 989 q 933 842 788 989 q 1079 486 1079 694 q 932 131 1079 279 m 575 26 q 901 162 769 26 q 1033 489 1033 297 q 902 813 1033 679 q 578 946 771 946 q 251 810 383 946 q 119 483 119 675 q 251 160 119 293 q 575 26 382 26 m 379 243 l 379 758 l 610 758 q 763 704 708 758 q 804 601 804 665 q 768 503 804 542 q 671 450 732 464 l 831 243 l 736 243 l 585 438 l 456 438 l 456 243 l 379 243 m 456 506 l 603 506 q 692 531 658 506 q 725 600 725 556 q 694 665 725 640 q 607 689 663 689 l 456 689 l 456 506 z "},"¯":{"ha":694,"x_min":128,"x_max":567,"o":"m 128 833 l 128 926 l 567 926 l 567 833 l 128 833 z "},"°":{"ha":636,"x_min":100,"x_max":536,"o":"m 470 619 q 437 588 470 619 q 318 556 404 556 q 166 619 232 556 q 100 769 100 683 q 166 917 100 854 q 318 981 232 981 q 470 917 404 981 q 536 767 536 853 q 470 619 536 683 m 220 669 q 240 649 220 669 q 318 628 260 628 q 416 670 376 628 q 456 769 456 713 q 416 867 456 825 q 318 908 376 908 q 220 866 260 908 q 181 767 181 824 q 220 669 181 711 z "},"±":{"ha":889,"x_min":97,"x_max":792,"o":"m 100 19 l 100 117 l 789 117 l 789 19 l 100 19 m 390 186 l 390 419 l 97 419 l 97 519 l 390 519 l 390 753 l 497 753 l 497 519 l 792 519 l 792 419 l 497 419 l 497 186 l 390 186 z "},"²":{"ha":694,"x_min":0,"x_max":694,"o":"m 0 0 l 0 972 l 694 972 l 694 0 l 0 0 m 113 68 l 583 68 l 347 422 l 113 68 m 68 133 l 306 486 l 68 839 l 68 133 m 625 133 l 625 839 l 388 486 l 625 133 m 347 549 l 583 903 l 113 903 l 347 549 z "},"³":{"ha":694,"x_min":0,"x_max":694,"o":"m 0 0 l 0 972 l 694 972 l 694 0 l 0 0 m 113 68 l 583 68 l 347 422 l 113 68 m 68 133 l 306 486 l 68 839 l 68 133 m 625 133 l 625 839 l 388 486 l 625 133 m 347 549 l 583 903 l 113 903 l 347 549 z "},"´":{"ha":694,"x_min":251,"x_max":494,"o":"m 251 826 l 383 1028 l 494 976 l 338 826 l 251 826 z "},"µ":{"ha":874,"x_min":119,"x_max":754,"o":"m 119 -222 l 119 718 l 226 718 l 226 299 q 283 142 226 204 q 428 79 339 79 q 584 144 521 79 q 647 307 647 208 l 647 718 l 754 718 l 754 0 l 647 0 l 647 125 q 406 -14 564 -14 q 226 81 293 -14 l 226 -222 l 119 -222 z "},"¶":{"ha":708,"x_min":67,"x_max":581,"o":"m 469 0 l 469 367 l 454 367 q 175 447 283 367 q 67 671 67 528 q 168 891 67 810 q 433 972 269 972 l 581 972 l 581 0 l 469 0 z "},"·":{"ha":340,"x_min":107,"x_max":235,"o":"m 107 344 l 107 490 l 235 490 l 235 344 l 107 344 z "},"¸":{"ha":694,"x_min":208,"x_max":418,"o":"m 313 -215 l 208 -168 l 333 14 l 418 14 l 313 -215 z "},"¹":{"ha":694,"x_min":0,"x_max":694,"o":"m 0 0 l 0 972 l 694 972 l 694 0 l 0 0 m 113 68 l 583 68 l 347 422 l 113 68 m 68 133 l 306 486 l 68 839 l 68 133 m 625 133 l 625 839 l 388 486 l 625 133 m 347 549 l 583 903 l 113 903 l 347 549 z "},"º":{"ha":542,"x_min":67,"x_max":475,"o":"m 71 401 l 71 467 l 471 467 l 471 401 l 71 401 m 269 565 q 125 626 183 565 q 67 772 67 686 q 126 919 67 858 q 272 979 185 979 q 417 919 358 979 q 475 772 475 858 q 416 626 475 686 q 269 565 357 565 m 272 632 q 365 672 329 632 q 400 772 400 713 q 363 872 400 831 q 269 913 325 913 q 177 872 213 913 q 142 772 142 832 q 179 673 142 714 q 272 632 217 632 z "},"»":{"ha":764,"x_min":82,"x_max":697,"o":"m 163 57 l 82 103 l 269 358 l 82 614 l 163 661 l 388 365 l 388 354 l 163 57 m 472 57 l 390 103 l 578 358 l 390 614 l 472 661 l 697 365 l 697 354 l 472 57 z "},"¼":{"ha":694,"x_min":0,"x_max":694,"o":"m 0 0 l 0 972 l 694 972 l 694 0 l 0 0 m 113 68 l 583 68 l 347 422 l 113 68 m 68 133 l 306 486 l 68 839 l 68 133 m 625 133 l 625 839 l 388 486 l 625 133 m 347 549 l 583 903 l 113 903 l 347 549 z "},"½":{"ha":694,"x_min":0,"x_max":694,"o":"m 0 0 l 0 972 l 694 972 l 694 0 l 0 0 m 113 68 l 583 68 l 347 422 l 113 68 m 68 133 l 306 486 l 68 839 l 68 133 m 625 133 l 625 839 l 388 486 l 625 133 m 347 549 l 583 903 l 113 903 l 347 549 z "},"¾":{"ha":694,"x_min":0,"x_max":694,"o":"m 0 0 l 0 972 l 694 972 l 694 0 l 0 0 m 113 68 l 583 68 l 347 422 l 113 68 m 68 133 l 306 486 l 68 839 l 68 133 m 625 133 l 625 839 l 388 486 l 625 133 m 347 549 l 583 903 l 113 903 l 347 549 z "},"¿":{"ha":746,"x_min":67,"x_max":703,"o":"m 378 -12 q 152 65 238 -12 q 67 265 67 143 q 147 459 67 389 q 356 547 228 529 l 368 697 l 439 697 l 461 472 l 454 465 q 249 410 321 463 q 178 267 178 357 q 233 138 178 190 q 381 86 289 86 q 632 217 521 86 l 703 149 q 378 -12 569 -12 m 342 826 l 342 972 l 469 972 l 469 826 l 342 826 z "},"À":{"ha":1097,"x_min":54,"x_max":1043,"o":"m 54 0 l 497 979 l 600 979 l 1043 0 l 925 0 l 811 257 l 282 257 l 167 0 l 54 0 m 325 356 l 768 356 l 547 851 l 325 356 m 504 1058 l 347 1208 l 458 1260 l 590 1058 l 504 1058 z "},"Á":{"ha":1097,"x_min":54,"x_max":1043,"o":"m 54 0 l 497 979 l 600 979 l 1043 0 l 925 0 l 811 257 l 282 257 l 167 0 l 54 0 m 325 356 l 768 356 l 547 851 l 325 356 m 507 1058 l 639 1260 l 750 1208 l 593 1058 l 507 1058 z "},"Â":{"ha":1097,"x_min":54,"x_max":1043,"o":"m 54 0 l 497 979 l 600 979 l 1043 0 l 925 0 l 811 257 l 282 257 l 167 0 l 54 0 m 325 356 l 768 356 l 547 851 l 325 356 m 354 1054 l 501 1236 l 596 1236 l 743 1054 l 651 1054 l 547 1147 l 443 1054 l 354 1054 z "},"Ã":{"ha":1097,"x_min":54,"x_max":1043,"o":"m 54 0 l 497 979 l 600 979 l 1043 0 l 925 0 l 811 257 l 282 257 l 167 0 l 54 0 m 325 356 l 768 356 l 547 851 l 325 356 m 386 1046 l 321 1064 q 372 1176 342 1142 q 453 1210 403 1210 q 551 1182 486 1210 q 639 1154 617 1154 q 680 1169 665 1154 q 711 1222 694 1183 l 776 1204 q 725 1092 756 1126 q 644 1058 694 1058 q 546 1086 611 1058 q 458 1114 481 1114 q 417 1099 432 1114 q 386 1046 403 1085 z "},"Ä":{"ha":1097,"x_min":54,"x_max":1043,"o":"m 54 0 l 497 979 l 600 979 l 1043 0 l 925 0 l 811 257 l 282 257 l 167 0 l 54 0 m 325 356 l 768 356 l 547 851 l 325 356 m 364 1058 l 364 1190 l 489 1190 l 489 1058 l 364 1058 m 608 1058 l 608 1190 l 733 1190 l 733 1058 l 608 1058 z "},"Å":{"ha":1097,"x_min":54,"x_max":1043,"o":"m 54 0 l 481 944 q 404 1067 404 985 q 447 1163 404 1122 q 549 1204 490 1204 q 650 1163 607 1204 q 693 1064 693 1122 q 617 944 693 985 l 1043 0 l 925 0 l 811 257 l 282 257 l 167 0 l 54 0 m 325 356 l 768 356 l 547 851 l 325 356 m 488 1004 q 501 992 488 1004 q 549 979 514 979 q 609 1005 583 979 q 635 1067 635 1031 q 609 1126 635 1101 q 549 1151 583 1151 q 488 1126 513 1151 q 463 1064 463 1100 q 488 1004 463 1029 z "},"Æ":{"ha":1451,"x_min":24,"x_max":1368,"o":"m 24 0 l 594 972 l 1361 972 l 1361 872 l 793 872 l 793 540 l 1299 540 l 1299 440 l 793 440 l 793 100 l 1368 100 l 1368 0 l 682 0 l 682 257 l 290 257 l 139 0 l 24 0 m 346 356 l 682 356 l 682 875 l 649 875 l 346 356 z "},"Ç":{"ha":1025,"x_min":94,"x_max":971,"o":"m 513 -215 l 408 -168 l 515 -12 q 213 151 331 11 q 94 486 94 292 q 235 842 94 696 q 586 989 375 989 q 797 950 710 989 q 965 835 885 911 l 890 754 q 585 888 750 888 q 316 772 424 888 q 208 486 208 657 q 317 201 208 317 q 585 85 425 85 q 751 119 679 85 q 899 225 824 154 l 971 154 q 806 31 892 74 q 604 -17 721 -11 l 513 -215 z "},"È":{"ha":931,"x_min":138,"x_max":847,"o":"m 138 0 l 138 972 l 840 972 l 840 872 l 247 872 l 247 540 l 778 540 l 778 440 l 247 440 l 247 100 l 847 100 l 847 0 l 138 0 m 472 1058 l 315 1208 l 426 1260 l 558 1058 l 472 1058 z "},"É":{"ha":931,"x_min":138,"x_max":847,"o":"m 138 0 l 138 972 l 840 972 l 840 872 l 247 872 l 247 540 l 778 540 l 778 440 l 247 440 l 247 100 l 847 100 l 847 0 l 138 0 m 413 1058 l 544 1260 l 656 1208 l 499 1058 l 413 1058 z "},"Ê":{"ha":931,"x_min":138,"x_max":847,"o":"m 138 0 l 138 972 l 840 972 l 840 872 l 247 872 l 247 540 l 778 540 l 778 440 l 247 440 l 247 100 l 847 100 l 847 0 l 138 0 m 289 1058 l 436 1240 l 531 1240 l 678 1058 l 586 1058 l 482 1151 l 378 1058 l 289 1058 z "},"Ë":{"ha":931,"x_min":138,"x_max":847,"o":"m 138 0 l 138 972 l 840 972 l 840 872 l 247 872 l 247 540 l 778 540 l 778 440 l 247 440 l 247 100 l 847 100 l 847 0 l 138 0 m 299 1058 l 299 1190 l 424 1190 l 424 1058 l 299 1058 m 543 1058 l 543 1190 l 668 1190 l 668 1058 l 543 1058 z "},"Ì":{"ha":404,"x_min":3,"x_max":257,"o":"m 147 0 l 147 972 l 257 972 l 257 0 l 147 0 m 160 1058 l 3 1208 l 114 1260 l 246 1058 l 160 1058 z "},"Í":{"ha":404,"x_min":147,"x_max":401,"o":"m 147 0 l 147 972 l 257 972 l 257 0 l 147 0 m 158 1058 l 290 1260 l 401 1208 l 244 1058 l 158 1058 z "},"Î":{"ha":404,"x_min":8,"x_max":397,"o":"m 147 0 l 147 972 l 257 972 l 257 0 l 147 0 m 8 1058 l 156 1240 l 250 1240 l 397 1058 l 306 1058 l 201 1151 l 97 1058 l 8 1058 z "},"Ï":{"ha":404,"x_min":18,"x_max":388,"o":"m 147 0 l 147 972 l 257 972 l 257 0 l 147 0 m 18 1058 l 18 1190 l 143 1190 l 143 1058 l 18 1058 m 263 1058 l 263 1190 l 388 1190 l 388 1058 l 263 1058 z "},"Ð":{"ha":1128,"x_min":75,"x_max":1033,"o":"m 179 0 l 179 439 l 75 439 l 75 539 l 179 539 l 179 972 l 517 972 q 889 834 744 972 q 1033 486 1033 696 q 888 139 1033 278 q 517 0 743 0 l 179 0 m 289 101 l 517 101 q 809 210 699 101 q 919 486 919 319 q 808 761 919 651 q 517 871 697 871 l 289 871 l 289 539 l 581 539 l 581 439 l 289 439 l 289 101 z "},"Ñ":{"ha":1097,"x_min":138,"x_max":960,"o":"m 138 0 l 138 972 l 240 972 l 853 193 l 853 972 l 960 972 l 960 0 l 872 0 l 244 797 l 244 0 l 138 0 m 386 1046 l 321 1064 q 372 1176 342 1142 q 453 1210 403 1210 q 551 1182 486 1210 q 639 1154 617 1154 q 680 1169 665 1154 q 711 1222 694 1183 l 776 1204 q 725 1092 756 1126 q 644 1058 694 1058 q 546 1086 611 1058 q 458 1114 481 1114 q 417 1099 432 1114 q 386 1046 403 1085 z "},"Ò":{"ha":1181,"x_min":94,"x_max":1086,"o":"m 946 131 q 876 57 946 131 q 589 -17 806 -17 q 233 131 372 -17 q 94 486 94 278 q 235 841 94 693 q 592 989 375 989 q 947 842 808 989 q 1086 486 1086 694 q 946 131 1086 279 m 317 201 q 372 143 317 201 q 592 85 426 85 q 865 201 757 85 q 972 486 972 317 q 863 771 972 654 q 589 888 754 888 q 316 772 424 888 q 208 486 208 656 q 317 201 208 318 m 540 1058 l 383 1208 l 494 1260 l 626 1058 l 540 1058 z "},"Ó":{"ha":1181,"x_min":94,"x_max":1086,"o":"m 946 131 q 876 57 946 131 q 589 -17 806 -17 q 233 131 372 -17 q 94 486 94 278 q 235 841 94 693 q 592 989 375 989 q 947 842 808 989 q 1086 486 1086 694 q 946 131 1086 279 m 317 201 q 372 143 317 201 q 592 85 426 85 q 865 201 757 85 q 972 486 972 317 q 863 771 972 654 q 589 888 754 888 q 316 772 424 888 q 208 486 208 656 q 317 201 208 318 m 554 1058 l 686 1260 l 797 1208 l 640 1058 l 554 1058 z "},"Ô":{"ha":1181,"x_min":94,"x_max":1086,"o":"m 946 131 q 876 57 946 131 q 589 -17 806 -17 q 233 131 372 -17 q 94 486 94 278 q 235 841 94 693 q 592 989 375 989 q 947 842 808 989 q 1086 486 1086 694 q 946 131 1086 279 m 317 201 q 372 143 317 201 q 592 85 426 85 q 865 201 757 85 q 972 486 972 317 q 863 771 972 654 q 589 888 754 888 q 316 772 424 888 q 208 486 208 656 q 317 201 208 318 m 396 1058 l 543 1240 l 638 1240 l 785 1058 l 693 1058 l 589 1151 l 485 1058 l 396 1058 z "},"Õ":{"ha":1181,"x_min":94,"x_max":1086,"o":"m 946 131 q 876 57 946 131 q 589 -17 806 -17 q 233 131 372 -17 q 94 486 94 278 q 235 841 94 693 q 592 989 375 989 q 947 842 808 989 q 1086 486 1086 694 q 946 131 1086 279 m 317 201 q 372 143 317 201 q 592 85 426 85 q 865 201 757 85 q 972 486 972 317 q 863 771 972 654 q 589 888 754 888 q 316 772 424 888 q 208 486 208 656 q 317 201 208 318 m 428 1046 l 363 1064 q 414 1176 383 1142 q 494 1210 444 1210 q 593 1182 528 1210 q 681 1154 658 1154 q 722 1169 707 1154 q 753 1222 736 1183 l 818 1204 q 767 1092 797 1126 q 686 1058 736 1058 q 588 1086 653 1058 q 500 1114 522 1114 q 459 1099 474 1114 q 428 1046 444 1085 z "},"Ö":{"ha":1181,"x_min":94,"x_max":1086,"o":"m 946 131 q 876 57 946 131 q 589 -17 806 -17 q 233 131 372 -17 q 94 486 94 278 q 235 841 94 693 q 592 989 375 989 q 947 842 808 989 q 1086 486 1086 694 q 946 131 1086 279 m 317 201 q 372 143 317 201 q 592 85 426 85 q 865 201 757 85 q 972 486 972 317 q 863 771 972 654 q 589 888 754 888 q 316 772 424 888 q 208 486 208 656 q 317 201 208 318 m 406 1058 l 406 1190 l 531 1190 l 531 1058 l 406 1058 m 650 1058 l 650 1190 l 775 1190 l 775 1058 l 650 1058 z "},"×":{"ha":889,"x_min":110,"x_max":776,"o":"m 181 131 l 110 203 l 372 465 l 110 728 l 181 800 l 443 535 l 706 800 l 776 728 l 514 465 l 776 203 l 706 131 l 443 394 l 181 131 z "},"Ø":{"ha":1181,"x_min":83,"x_max":1097,"o":"m 589 -17 q 285 85 413 -17 l 199 -7 l 83 -7 l 221 143 q 94 486 94 285 q 235 841 94 693 q 592 989 375 989 q 896 886 769 989 l 982 979 l 1097 979 l 960 829 q 1086 486 1086 688 q 946 131 1086 279 q 589 -17 806 -17 m 592 83 q 865 200 757 83 q 972 486 972 317 q 885 746 972 635 l 356 168 q 592 83 456 83 m 296 226 l 825 804 q 589 889 725 889 q 316 772 424 889 q 208 486 208 656 q 296 226 208 338 z "},"Ù":{"ha":1054,"x_min":122,"x_max":932,"o":"m 526 -15 q 232 95 342 -15 q 122 407 122 206 l 122 972 l 232 972 l 232 414 q 310 172 232 257 q 529 86 389 86 q 744 168 667 86 q 822 407 822 250 l 822 972 l 932 972 l 932 415 q 822 96 932 207 q 526 -15 713 -15 m 492 1051 l 335 1201 l 446 1253 l 578 1051 l 492 1051 z "},"Ú":{"ha":1054,"x_min":122,"x_max":932,"o":"m 526 -15 q 232 95 342 -15 q 122 407 122 206 l 122 972 l 232 972 l 232 414 q 310 172 232 257 q 529 86 389 86 q 744 168 667 86 q 822 407 822 250 l 822 972 l 932 972 l 932 415 q 822 96 932 207 q 526 -15 713 -15 m 476 1051 l 608 1253 l 719 1201 l 563 1051 l 476 1051 z "},"Û":{"ha":1054,"x_min":122,"x_max":932,"o":"m 526 -15 q 232 95 342 -15 q 122 407 122 206 l 122 972 l 232 972 l 232 414 q 310 172 232 257 q 529 86 389 86 q 744 168 667 86 q 822 407 822 250 l 822 972 l 932 972 l 932 415 q 822 96 932 207 q 526 -15 713 -15 m 332 1054 l 479 1236 l 574 1236 l 721 1054 l 629 1054 l 525 1147 l 421 1054 l 332 1054 z "},"Ü":{"ha":1054,"x_min":122,"x_max":932,"o":"m 526 -15 q 232 95 342 -15 q 122 407 122 206 l 122 972 l 232 972 l 232 414 q 310 172 232 257 q 529 86 389 86 q 744 168 667 86 q 822 407 822 250 l 822 972 l 932 972 l 932 415 q 822 96 932 207 q 526 -15 713 -15 m 342 1054 l 342 1186 l 467 1186 l 467 1054 l 342 1054 m 586 1054 l 586 1186 l 711 1186 l 711 1054 l 586 1054 z "},"Ý":{"ha":994,"x_min":38,"x_max":957,"o":"m 442 0 l 442 385 l 38 972 l 171 972 l 499 486 l 829 972 l 957 972 l 553 386 l 553 0 l 442 0 m 457 1051 l 589 1253 l 700 1201 l 543 1051 l 457 1051 z "},"Þ":{"ha":935,"x_min":138,"x_max":865,"o":"m 138 0 l 138 972 l 247 972 l 247 806 l 501 806 q 766 722 667 806 q 865 494 865 639 q 756 259 865 343 q 483 175 647 175 l 247 175 l 247 0 l 138 0 m 247 275 l 488 275 q 681 335 608 275 q 754 493 754 394 q 684 649 754 594 q 493 704 614 704 l 247 704 l 247 275 z "},"ß":{"ha":861,"x_min":119,"x_max":781,"o":"m 406 -3 l 406 83 q 601 134 531 86 q 671 269 671 182 q 601 399 671 350 q 406 460 531 447 l 406 539 q 611 767 611 615 q 560 884 611 839 q 429 929 510 929 q 283 866 339 929 q 226 697 226 803 l 226 0 l 119 0 l 119 696 q 205 933 119 843 q 435 1024 290 1024 q 642 952 564 1024 q 721 771 721 881 q 666 617 721 681 q 528 517 611 553 q 709 431 638 492 q 781 267 781 369 q 683 69 781 140 q 415 -3 585 -3 l 406 -3 z "},"à":{"ha":804,"x_min":65,"x_max":697,"o":"m 333 -15 q 144 44 224 -15 q 65 211 65 104 q 149 385 65 324 q 372 446 232 446 q 592 415 483 446 l 592 438 q 536 582 592 532 q 379 632 481 632 q 161 581 274 632 l 129 668 q 390 729 263 729 q 622 650 543 729 q 697 439 697 575 l 697 0 l 592 0 l 592 107 q 333 -15 496 -15 m 354 71 q 524 125 454 71 q 593 264 593 179 l 593 331 q 383 361 488 361 q 229 322 285 361 q 174 214 174 282 q 226 110 174 149 q 354 71 278 71 m 363 826 l 206 976 l 317 1028 l 449 826 l 363 826 z "},"á":{"ha":804,"x_min":65,"x_max":697,"o":"m 333 -15 q 144 44 224 -15 q 65 211 65 104 q 149 385 65 324 q 372 446 232 446 q 592 415 483 446 l 592 438 q 536 582 592 532 q 379 632 481 632 q 161 581 274 632 l 129 668 q 390 729 263 729 q 622 650 543 729 q 697 439 697 575 l 697 0 l 592 0 l 592 107 q 333 -15 496 -15 m 354 71 q 524 125 454 71 q 593 264 593 179 l 593 331 q 383 361 488 361 q 229 322 285 361 q 174 214 174 282 q 226 110 174 149 q 354 71 278 71 m 344 826 l 476 1028 l 588 976 l 431 826 l 344 826 z "},"â":{"ha":804,"x_min":65,"x_max":697,"o":"m 333 -15 q 144 44 224 -15 q 65 211 65 104 q 149 385 65 324 q 372 446 232 446 q 592 415 483 446 l 592 438 q 536 582 592 532 q 379 632 481 632 q 161 581 274 632 l 129 668 q 390 729 263 729 q 622 650 543 729 q 697 439 697 575 l 697 0 l 592 0 l 592 107 q 333 -15 496 -15 m 354 71 q 524 125 454 71 q 593 264 593 179 l 593 331 q 383 361 488 361 q 229 322 285 361 q 174 214 174 282 q 226 110 174 149 q 354 71 278 71 m 210 826 l 357 1008 l 451 1008 l 599 826 l 507 826 l 403 919 l 299 826 l 210 826 z "},"ã":{"ha":804,"x_min":65,"x_max":697,"o":"m 333 -15 q 144 44 224 -15 q 65 211 65 104 q 149 385 65 324 q 372 446 232 446 q 592 415 483 446 l 592 438 q 536 582 592 532 q 379 632 481 632 q 161 581 274 632 l 129 668 q 390 729 263 729 q 622 650 543 729 q 697 439 697 575 l 697 0 l 592 0 l 592 107 q 333 -15 496 -15 m 354 71 q 524 125 454 71 q 593 264 593 179 l 593 331 q 383 361 488 361 q 229 322 285 361 q 174 214 174 282 q 226 110 174 149 q 354 71 278 71 m 243 814 l 178 832 q 229 944 199 910 q 310 978 260 978 q 408 950 343 978 q 496 922 474 922 q 537 937 522 922 q 568 990 551 951 l 633 972 q 582 860 613 894 q 501 826 551 826 q 403 854 468 826 q 315 882 338 882 q 274 867 289 882 q 243 814 260 853 z "},"ä":{"ha":804,"x_min":65,"x_max":697,"o":"m 333 -15 q 144 44 224 -15 q 65 211 65 104 q 149 385 65 324 q 372 446 232 446 q 592 415 483 446 l 592 438 q 536 582 592 532 q 379 632 481 632 q 161 581 274 632 l 129 668 q 390 729 263 729 q 622 650 543 729 q 697 439 697 575 l 697 0 l 592 0 l 592 107 q 333 -15 496 -15 m 354 71 q 524 125 454 71 q 593 264 593 179 l 593 331 q 383 361 488 361 q 229 322 285 361 q 174 214 174 282 q 226 110 174 149 q 354 71 278 71 m 219 826 l 219 958 l 344 958 l 344 826 l 219 826 m 464 826 l 464 958 l 589 958 l 589 826 l 464 826 z "},"å":{"ha":804,"x_min":65,"x_max":697,"o":"m 333 -15 q 144 44 224 -15 q 65 211 65 104 q 149 385 65 324 q 372 446 232 446 q 592 415 483 446 l 592 438 q 536 582 592 532 q 379 632 481 632 q 161 581 274 632 l 129 668 q 390 729 263 729 q 622 650 543 729 q 697 439 697 575 l 697 0 l 592 0 l 592 107 q 333 -15 496 -15 m 354 71 q 524 125 454 71 q 593 264 593 179 l 593 331 q 383 361 488 361 q 229 322 285 361 q 174 214 174 282 q 226 110 174 149 q 354 71 278 71 m 506 865 q 484 844 506 865 q 404 824 463 824 q 303 865 346 824 q 260 964 260 906 q 303 1060 260 1019 q 404 1101 346 1101 q 506 1060 463 1101 q 549 961 549 1019 q 506 865 549 906 m 344 901 q 357 889 344 901 q 404 876 369 876 q 465 902 439 876 q 490 964 490 928 q 465 1024 490 999 q 404 1049 439 1049 q 343 1023 368 1049 q 318 961 318 997 q 344 901 318 926 z "},"æ":{"ha":1324,"x_min":65,"x_max":1256,"o":"m 328 -15 q 144 45 224 -15 q 65 211 65 106 q 148 385 65 324 q 367 446 231 446 q 579 415 460 446 l 579 438 q 525 583 579 533 q 374 632 471 632 q 161 581 274 632 l 129 668 q 385 729 263 729 q 552 690 483 729 q 647 574 621 650 q 763 690 690 647 q 922 733 836 733 q 1166 625 1076 733 q 1256 353 1256 517 q 1254 315 1256 332 l 685 315 q 767 141 696 206 q 938 76 839 76 q 1164 178 1067 76 l 1231 118 q 935 -17 1110 -17 q 774 22 849 -17 q 650 128 699 60 q 502 25 590 65 q 328 -15 414 -15 m 349 71 q 492 103 435 71 q 607 199 550 135 q 578 333 582 261 q 378 361 472 361 q 228 321 283 361 q 174 214 174 281 q 226 110 174 149 q 349 71 278 71 m 685 401 l 1147 401 q 1078 574 1138 506 q 918 643 1019 643 q 761 575 826 643 q 685 401 696 507 z "},"ç":{"ha":793,"x_min":75,"x_max":736,"o":"m 372 -215 l 268 -168 l 376 -10 q 160 117 244 14 q 75 358 75 221 q 181 623 75 513 q 443 733 288 733 q 731 606 610 733 l 660 531 q 442 639 557 639 q 259 558 333 639 q 185 358 185 476 q 260 160 185 242 q 449 79 336 79 q 668 186 568 79 l 736 122 q 464 -17 618 -8 l 372 -215 z "},"è":{"ha":822,"x_min":75,"x_max":754,"o":"m 183 315 q 266 141 194 206 q 436 76 338 76 q 663 178 565 76 l 729 118 q 433 -17 608 -17 q 178 88 282 -17 q 75 358 75 193 q 174 624 75 515 q 419 733 272 733 q 664 625 574 733 q 754 353 754 517 q 753 315 754 332 l 183 315 m 183 401 l 646 401 q 577 574 636 506 q 417 643 518 643 q 260 575 325 643 q 183 401 194 507 m 383 826 l 226 976 l 338 1028 l 469 826 l 383 826 z "},"é":{"ha":822,"x_min":75,"x_max":754,"o":"m 183 315 q 266 141 194 206 q 436 76 338 76 q 663 178 565 76 l 729 118 q 433 -17 608 -17 q 178 88 282 -17 q 75 358 75 193 q 174 624 75 515 q 419 733 272 733 q 664 625 574 733 q 754 353 754 517 q 753 315 754 332 l 183 315 m 183 401 l 646 401 q 577 574 636 506 q 417 643 518 643 q 260 575 325 643 q 183 401 194 507 m 353 826 l 485 1028 l 596 976 l 439 826 l 353 826 z "},"ê":{"ha":822,"x_min":75,"x_max":754,"o":"m 183 315 q 266 141 194 206 q 436 76 338 76 q 663 178 565 76 l 729 118 q 433 -17 608 -17 q 178 88 282 -17 q 75 358 75 193 q 174 624 75 515 q 419 733 272 733 q 664 625 574 733 q 754 353 754 517 q 753 315 754 332 l 183 315 m 183 401 l 646 401 q 577 574 636 506 q 417 643 518 643 q 260 575 325 643 q 183 401 194 507 m 221 826 l 368 1008 l 463 1008 l 610 826 l 518 826 l 414 919 l 310 826 l 221 826 z "},"ë":{"ha":822,"x_min":75,"x_max":754,"o":"m 183 315 q 266 141 194 206 q 436 76 338 76 q 663 178 565 76 l 729 118 q 433 -17 608 -17 q 178 88 282 -17 q 75 358 75 193 q 174 624 75 515 q 419 733 272 733 q 664 625 574 733 q 754 353 754 517 q 753 315 754 332 l 183 315 m 183 401 l 646 401 q 577 574 636 506 q 417 643 518 643 q 260 575 325 643 q 183 401 194 507 m 231 826 l 231 958 l 356 958 l 356 826 l 231 826 m 475 826 l 475 958 l 600 958 l 600 826 l 475 826 z "},"ì":{"ha":365,"x_min":-15,"x_max":236,"o":"m 129 0 l 129 718 l 236 718 l 236 0 l 129 0 m 142 826 l -15 976 l 96 1028 l 228 826 l 142 826 z "},"í":{"ha":365,"x_min":129,"x_max":382,"o":"m 129 0 l 129 718 l 236 718 l 236 0 l 129 0 m 139 826 l 271 1028 l 382 976 l 225 826 l 139 826 z "},"î":{"ha":365,"x_min":-12,"x_max":376,"o":"m 129 0 l 129 718 l 236 718 l 236 0 l 129 0 m -12 826 l 135 1008 l 229 1008 l 376 826 l 285 826 l 181 919 l 76 826 l -12 826 z "},"ï":{"ha":365,"x_min":-3,"x_max":367,"o":"m 129 0 l 129 718 l 236 718 l 236 0 l 129 0 m -3 826 l -3 958 l 122 958 l 122 826 l -3 826 m 242 826 l 242 958 l 367 958 l 367 826 l 242 826 z "},"ð":{"ha":879,"x_min":75,"x_max":803,"o":"m 433 -17 q 178 88 281 -17 q 75 343 75 193 q 172 582 75 489 q 404 675 268 675 q 629 599 521 675 l 447 854 l 269 767 l 219 832 l 401 917 l 332 1014 l 460 1014 l 496 960 l 633 1026 l 682 961 l 540 896 l 681 689 q 803 349 803 513 q 701 90 803 197 q 433 -17 599 -17 m 440 78 q 622 155 551 78 q 693 340 693 232 q 617 517 693 443 q 429 590 542 590 q 251 519 318 590 q 183 336 183 447 q 257 156 183 233 q 440 78 331 78 z "},"ñ":{"ha":856,"x_min":119,"x_max":747,"o":"m 119 0 l 119 718 l 226 718 l 226 593 q 472 733 311 733 q 674 655 600 733 q 747 446 747 576 l 747 0 l 640 0 l 640 419 q 588 578 640 521 q 442 636 536 636 q 288 574 349 636 q 226 411 226 511 l 226 0 l 119 0 m 271 814 l 206 832 q 257 944 226 910 q 338 978 288 978 q 436 950 371 978 q 524 922 501 922 q 565 937 550 922 q 596 990 579 951 l 661 972 q 610 860 640 894 q 529 826 579 826 q 431 854 496 826 q 343 882 365 882 q 302 867 317 882 q 271 814 288 853 z "},"ò":{"ha":897,"x_min":75,"x_max":824,"o":"m 715 94 q 661 39 715 94 q 447 -17 607 -17 q 181 93 288 -17 q 75 358 75 203 q 183 623 75 513 q 450 733 290 733 q 717 624 610 733 q 824 358 824 514 q 715 94 824 204 m 450 79 q 640 160 565 79 q 714 358 714 240 q 637 557 714 475 q 447 639 560 639 q 258 558 332 639 q 185 358 185 476 q 261 160 185 242 q 450 79 338 79 m 406 826 l 249 976 l 360 1028 l 492 826 l 406 826 z "},"ó":{"ha":897,"x_min":75,"x_max":824,"o":"m 715 94 q 661 39 715 94 q 447 -17 607 -17 q 181 93 288 -17 q 75 358 75 203 q 183 623 75 513 q 450 733 290 733 q 717 624 610 733 q 824 358 824 514 q 715 94 824 204 m 450 79 q 640 160 565 79 q 714 358 714 240 q 637 557 714 475 q 447 639 560 639 q 258 558 332 639 q 185 358 185 476 q 261 160 185 242 q 450 79 338 79 m 407 826 l 539 1028 l 650 976 l 493 826 l 407 826 z "},"ô":{"ha":897,"x_min":75,"x_max":824,"o":"m 715 94 q 661 39 715 94 q 447 -17 607 -17 q 181 93 288 -17 q 75 358 75 203 q 183 623 75 513 q 450 733 290 733 q 717 624 610 733 q 824 358 824 514 q 715 94 824 204 m 450 79 q 640 160 565 79 q 714 358 714 240 q 637 557 714 475 q 447 639 560 639 q 258 558 332 639 q 185 358 185 476 q 261 160 185 242 q 450 79 338 79 m 254 826 l 401 1008 l 496 1008 l 643 826 l 551 826 l 447 919 l 343 826 l 254 826 z "},"õ":{"ha":897,"x_min":75,"x_max":824,"o":"m 715 94 q 661 39 715 94 q 447 -17 607 -17 q 181 93 288 -17 q 75 358 75 203 q 183 623 75 513 q 450 733 290 733 q 717 624 610 733 q 824 358 824 514 q 715 94 824 204 m 450 79 q 640 160 565 79 q 714 358 714 240 q 637 557 714 475 q 447 639 560 639 q 258 558 332 639 q 185 358 185 476 q 261 160 185 242 q 450 79 338 79 m 286 814 l 221 832 q 272 944 242 910 q 353 978 303 978 q 451 950 386 978 q 539 922 517 922 q 580 937 565 922 q 611 990 594 951 l 676 972 q 625 860 656 894 q 544 826 594 826 q 446 854 511 826 q 358 882 381 882 q 317 867 332 882 q 286 814 303 853 z "},"ö":{"ha":897,"x_min":75,"x_max":824,"o":"m 715 94 q 661 39 715 94 q 447 -17 607 -17 q 181 93 288 -17 q 75 358 75 203 q 183 623 75 513 q 450 733 290 733 q 717 624 610 733 q 824 358 824 514 q 715 94 824 204 m 450 79 q 640 160 565 79 q 714 358 714 240 q 637 557 714 475 q 447 639 560 639 q 258 558 332 639 q 185 358 185 476 q 261 160 185 242 q 450 79 338 79 m 264 826 l 264 958 l 389 958 l 389 826 l 264 826 m 508 826 l 508 958 l 633 958 l 633 826 l 508 826 z "},"÷":{"ha":889,"x_min":124,"x_max":765,"o":"m 382 153 l 382 296 l 506 296 l 506 153 l 382 153 m 124 440 l 124 543 l 765 543 l 765 440 l 124 440 m 382 686 l 382 829 l 506 829 l 506 686 l 382 686 z "},"ø":{"ha":897,"x_min":54,"x_max":844,"o":"m 447 -17 q 224 57 322 -17 l 161 -7 l 54 -7 l 164 111 q 75 358 75 215 q 183 623 75 513 q 450 733 290 733 q 674 658 579 733 l 736 726 l 844 726 q 733 607 749 625 q 824 358 824 503 q 715 94 824 204 q 447 -17 607 -17 m 450 78 q 640 159 565 78 q 715 358 715 240 q 661 528 715 453 l 290 135 q 450 78 358 78 m 236 189 l 608 582 q 447 640 536 640 q 258 558 332 640 q 183 358 183 476 q 236 189 183 265 z "},"ù":{"ha":856,"x_min":108,"x_max":735,"o":"m 383 -15 q 182 63 256 -15 q 108 272 108 142 l 108 718 l 215 718 l 215 299 q 267 140 215 197 q 414 82 319 82 q 568 144 507 82 q 629 307 629 207 l 629 718 l 735 718 l 735 0 l 629 0 l 629 125 q 383 -15 542 -15 m 394 821 l 238 971 l 349 1022 l 481 821 l 394 821 z "},"ú":{"ha":856,"x_min":108,"x_max":735,"o":"m 383 -15 q 182 63 256 -15 q 108 272 108 142 l 108 718 l 215 718 l 215 299 q 267 140 215 197 q 414 82 319 82 q 568 144 507 82 q 629 307 629 207 l 629 718 l 735 718 l 735 0 l 629 0 l 629 125 q 383 -15 542 -15 m 369 821 l 501 1022 l 613 971 l 456 821 l 369 821 z "},"û":{"ha":856,"x_min":108,"x_max":735,"o":"m 383 -15 q 182 63 256 -15 q 108 272 108 142 l 108 718 l 215 718 l 215 299 q 267 140 215 197 q 414 82 319 82 q 568 144 507 82 q 629 307 629 207 l 629 718 l 735 718 l 735 0 l 629 0 l 629 125 q 383 -15 542 -15 m 235 826 l 382 1008 l 476 1008 l 624 826 l 532 826 l 428 919 l 324 826 l 235 826 z "},"ü":{"ha":856,"x_min":108,"x_max":735,"o":"m 383 -15 q 182 63 256 -15 q 108 272 108 142 l 108 718 l 215 718 l 215 299 q 267 140 215 197 q 414 82 319 82 q 568 144 507 82 q 629 307 629 207 l 629 718 l 735 718 l 735 0 l 629 0 l 629 125 q 383 -15 542 -15 m 244 826 l 244 958 l 369 958 l 369 826 l 244 826 m 489 826 l 489 958 l 614 958 l 614 826 l 489 826 z "},"ý":{"ha":821,"x_min":47,"x_max":771,"o":"m 231 -226 q 78 -190 153 -226 l 114 -106 q 226 -132 165 -132 q 308 -102 275 -132 q 374 3 342 -72 l 47 718 l 165 718 l 426 119 l 657 718 l 771 718 l 469 -24 q 368 -180 424 -133 q 231 -226 313 -226 m 371 821 l 503 1022 l 614 971 l 457 821 l 371 821 z "},"þ":{"ha":922,"x_min":119,"x_max":844,"o":"m 119 -222 l 119 1014 l 226 1014 l 226 574 q 501 733 335 733 q 742 631 639 733 q 844 358 844 529 q 742 88 844 190 q 501 -15 639 -15 q 226 138 332 -15 l 226 -222 l 119 -222 m 482 81 q 663 156 590 81 q 735 360 735 232 q 661 560 735 483 q 482 638 588 638 q 300 558 378 638 q 222 358 222 479 q 300 159 222 238 q 482 81 378 81 z "},"ÿ":{"ha":821,"x_min":47,"x_max":771,"o":"m 231 -226 q 78 -190 153 -226 l 114 -106 q 226 -132 165 -132 q 308 -102 275 -132 q 374 3 342 -72 l 47 718 l 165 718 l 426 119 l 657 718 l 771 718 l 469 -24 q 368 -180 424 -133 q 231 -226 313 -226 m 226 826 l 226 958 l 351 958 l 351 826 l 226 826 m 471 826 l 471 958 l 596 958 l 596 826 l 471 826 z "},"ı":{"ha":365,"x_min":129,"x_max":236,"o":"m 129 0 l 129 718 l 236 718 l 236 0 l 129 0 z "},"Ł":{"ha":901,"x_min":75,"x_max":836,"o":"m 179 0 l 179 418 l 75 388 l 75 489 l 179 521 l 179 972 l 288 972 l 288 554 l 588 646 l 588 543 l 288 453 l 288 101 l 836 101 l 836 0 l 179 0 z "},"ł":{"ha":449,"x_min":67,"x_max":383,"o":"m 172 0 l 172 446 l 67 413 l 67 517 l 172 549 l 172 1014 l 278 1014 l 278 581 l 383 614 l 383 510 l 278 476 l 278 0 l 172 0 z "},"Œ":{"ha":1571,"x_min":94,"x_max":1488,"o":"m 611 0 q 239 138 383 0 q 94 486 94 276 q 240 833 94 694 q 611 972 385 972 l 1481 972 l 1481 872 l 913 872 l 913 540 l 1418 540 l 1418 440 l 913 440 l 913 100 l 1488 100 l 1488 0 l 611 0 m 611 100 l 803 100 l 803 872 l 611 872 q 319 763 431 872 q 208 486 208 653 q 319 210 208 321 q 611 100 431 100 z "},"œ":{"ha":1457,"x_min":75,"x_max":1389,"o":"m 443 -17 q 181 93 288 -17 q 75 358 75 203 q 183 623 75 513 q 447 733 290 733 q 633 681 550 733 q 761 543 717 629 q 881 682 803 631 q 1056 733 958 733 q 1299 625 1210 733 q 1389 353 1389 517 q 1388 315 1389 332 l 818 315 q 901 141 829 206 q 1071 76 972 76 q 1297 178 1200 76 l 1364 118 q 1069 -17 1246 -17 q 887 35 969 -17 q 760 176 804 86 q 631 36 715 89 q 443 -17 547 -17 m 449 79 q 636 160 563 79 q 710 358 710 240 q 633 557 710 475 q 446 639 557 639 q 258 558 332 639 q 185 358 185 476 q 261 160 185 242 q 449 79 338 79 m 818 401 l 1281 401 q 1212 574 1271 506 q 1051 643 1153 643 q 894 575 960 643 q 818 401 829 507 z "},"Š":{"ha":889,"x_min":74,"x_max":803,"o":"m 471 -14 q 74 142 247 -14 l 142 222 q 298 118 219 151 q 475 85 376 85 q 632 131 572 85 q 692 253 692 178 q 639 365 692 324 q 439 438 586 407 q 189 539 265 475 q 113 721 113 603 q 203 911 113 836 q 432 986 293 986 q 774 867 625 986 l 710 782 q 429 888 581 888 q 279 842 336 888 q 222 728 222 797 q 277 614 222 656 q 486 539 332 572 q 727 438 651 503 q 803 261 803 374 q 710 62 803 138 q 471 -14 617 -14 m 403 1058 l 256 1240 l 347 1240 l 451 1147 l 556 1240 l 644 1240 l 497 1058 l 403 1058 z "},"š":{"ha":692,"x_min":60,"x_max":613,"o":"m 357 -14 q 199 15 279 -14 q 60 92 119 43 l 114 168 q 363 76 236 76 q 469 108 428 76 q 511 193 511 140 q 466 268 511 242 q 332 319 421 294 q 246 347 278 335 q 174 383 214 360 q 114 441 133 406 q 94 525 94 476 q 163 674 94 617 q 339 731 232 731 q 597 651 478 731 l 549 571 q 336 640 442 640 q 235 610 274 640 q 197 533 197 581 q 208 497 197 514 q 233 469 219 481 q 277 446 247 458 q 325 428 307 433 q 382 410 343 422 q 467 381 433 394 q 538 343 500 367 q 594 284 575 319 q 613 201 613 249 q 540 44 613 101 q 357 -14 468 -14 m 303 826 l 156 1008 l 247 1008 l 351 915 l 456 1008 l 544 1008 l 397 826 l 303 826 z "},"Ÿ":{"ha":994,"x_min":38,"x_max":957,"o":"m 442 0 l 442 385 l 38 972 l 171 972 l 499 486 l 829 972 l 957 972 l 553 386 l 553 0 l 442 0 m 313 1054 l 313 1186 l 438 1186 l 438 1054 l 313 1054 m 557 1054 l 557 1186 l 682 1186 l 682 1054 l 557 1054 z "},"Ž":{"ha":963,"x_min":93,"x_max":872,"o":"m 93 0 l 93 74 l 722 874 l 114 874 l 114 972 l 872 972 l 872 899 l 242 99 l 872 99 l 872 0 l 93 0 m 440 1058 l 293 1240 l 385 1240 l 489 1147 l 593 1240 l 682 1240 l 535 1058 l 440 1058 z "},"ž":{"ha":772,"x_min":78,"x_max":700,"o":"m 78 0 l 78 68 l 554 628 l 94 628 l 94 718 l 700 718 l 700 650 l 222 90 l 700 90 l 700 0 l 78 0 m 351 826 l 204 1008 l 296 1008 l 400 915 l 504 1008 l 593 1008 l 446 826 l 351 826 z "},"ƒ":{"ha":714,"x_min":57,"x_max":664,"o":"m 129 -7 q 57 -1 96 -7 l 57 90 q 118 85 83 85 q 226 190 207 85 l 288 518 l 151 518 l 151 611 l 303 611 l 335 776 q 406 931 354 882 q 551 979 457 979 q 664 964 618 979 l 664 872 q 568 886 608 886 q 485 857 514 886 q 443 761 456 828 l 415 611 l 615 611 l 615 518 l 399 518 l 336 179 q 268 38 318 83 q 129 -7 218 -7 z "},"ˆ":{"ha":694,"x_min":153,"x_max":542,"o":"m 153 826 l 300 1008 l 394 1008 l 542 826 l 450 826 l 346 919 l 242 826 l 153 826 z "},"ˇ":{"ha":694,"x_min":153,"x_max":542,"o":"m 300 826 l 153 1008 l 244 1008 l 349 915 l 453 1008 l 542 1008 l 394 826 l 300 826 z "},"˘":{"ha":694,"x_min":142,"x_max":553,"o":"m 491 873 q 463 848 491 873 q 347 824 435 824 q 203 873 260 824 q 142 1008 147 922 l 219 1008 q 347 913 247 913 q 475 1008 447 913 l 553 1008 q 491 873 547 922 z "},"˙":{"ha":694,"x_min":282,"x_max":413,"o":"m 282 826 l 282 960 l 413 960 l 413 826 l 282 826 z "},"˚":{"ha":694,"x_min":203,"x_max":492,"o":"m 449 865 q 427 844 449 865 q 347 824 406 824 q 246 865 289 824 q 203 964 203 906 q 246 1060 203 1019 q 347 1101 289 1101 q 449 1060 406 1101 q 492 961 492 1019 q 449 865 492 906 m 287 901 q 300 889 287 901 q 347 876 313 876 q 408 902 382 876 q 433 964 433 928 q 408 1024 433 999 q 347 1049 382 1049 q 286 1023 311 1049 q 261 961 261 997 q 287 901 261 926 z "},"˛":{"ha":694,"x_min":254,"x_max":500,"o":"m 500 -228 q 318 -192 382 -233 q 254 -78 254 -151 q 274 14 254 -32 l 357 14 q 349 -57 349 -22 q 500 -171 349 -162 l 500 -228 z "},"˜":{"ha":694,"x_min":119,"x_max":575,"o":"m 185 814 l 119 832 q 171 944 140 910 q 251 978 201 978 q 350 950 285 978 q 438 922 415 922 q 478 937 464 922 q 510 990 493 951 l 575 972 q 524 860 554 894 q 443 826 493 826 q 344 854 410 826 q 257 882 279 882 q 216 867 231 882 q 185 814 201 853 z "},"˝":{"ha":694,"x_min":117,"x_max":581,"o":"m 117 826 l 249 1028 l 353 976 l 203 826 l 117 826 m 344 826 l 476 1028 l 581 976 l 429 826 l 344 826 z "},"Ω":{"ha":1096,"x_min":108,"x_max":986,"o":"m 108 0 l 108 92 l 375 92 l 375 197 q 180 335 251 231 q 108 571 108 439 q 237 868 108 753 q 549 983 365 983 q 858 867 731 983 q 986 572 986 751 q 915 335 986 440 q 719 197 844 231 l 719 92 l 986 92 l 986 0 l 636 0 l 636 263 q 816 365 754 282 q 878 568 878 447 q 783 797 878 707 q 546 888 688 888 q 311 797 406 888 q 217 568 217 706 q 281 363 217 450 q 458 263 344 276 l 458 0 l 108 0 z "},"π":{"ha":694,"x_min":0,"x_max":694,"o":"m 0 0 l 0 972 l 694 972 l 694 0 l 0 0 m 113 68 l 583 68 l 347 422 l 113 68 m 68 133 l 306 486 l 68 839 l 68 133 m 625 133 l 625 839 l 388 486 l 625 133 m 347 549 l 583 903 l 113 903 l 347 549 z "},"Ё":{"ha":931,"x_min":138,"x_max":847,"o":"m 138 0 l 138 972 l 840 972 l 840 872 l 247 872 l 247 540 l 778 540 l 778 440 l 247 440 l 247 100 l 847 100 l 847 0 l 138 0 m 308 1058 l 308 1190 l 433 1190 l 433 1058 l 308 1058 m 553 1058 l 553 1190 l 678 1190 l 678 1058 l 553 1058 z "},"Ђ":{"ha":1225,"x_min":67,"x_max":1107,"o":"m 783 -32 q 640 -4 711 -32 l 665 90 q 772 69 711 69 q 926 128 860 69 q 993 307 993 186 q 932 474 993 410 q 769 538 871 538 q 465 418 599 538 l 465 0 l 354 0 l 354 872 l 67 872 l 67 972 l 838 972 l 838 872 l 465 872 l 465 529 q 782 640 611 640 q 1017 553 928 640 q 1107 308 1107 465 q 1017 58 1107 149 q 783 -32 928 -32 z "},"Ѓ":{"ha":818,"x_min":138,"x_max":758,"o":"m 138 0 l 138 972 l 758 972 l 758 872 l 247 872 l 247 0 l 138 0 m 357 1058 l 489 1260 l 600 1208 l 443 1058 l 357 1058 z "},"Є":{"ha":1026,"x_min":94,"x_max":974,"o":"m 582 -17 q 233 128 372 -17 q 94 486 94 274 q 235 842 94 696 q 586 989 375 989 q 792 949 708 989 q 960 829 876 908 l 890 754 q 585 889 749 889 q 334 790 438 889 q 213 540 231 692 l 701 540 l 701 440 l 211 440 q 332 185 226 288 q 585 83 438 83 q 747 118 678 83 q 893 226 817 153 l 974 154 q 799 27 892 71 q 582 -17 707 -17 z "},"Ѕ":{"ha":889,"x_min":74,"x_max":803,"o":"m 471 -14 q 74 142 247 -14 l 142 222 q 298 118 219 151 q 475 85 376 85 q 632 131 572 85 q 692 253 692 178 q 639 365 692 324 q 439 438 586 407 q 189 539 265 475 q 113 721 113 603 q 203 911 113 836 q 432 986 293 986 q 774 867 625 986 l 710 782 q 429 888 581 888 q 279 842 336 888 q 222 728 222 797 q 277 614 222 656 q 486 539 332 572 q 727 438 651 503 q 803 261 803 374 q 710 62 803 138 q 471 -14 617 -14 z "},"І":{"ha":404,"x_min":147,"x_max":257,"o":"m 147 0 l 147 972 l 257 972 l 257 0 l 147 0 z "},"Ї":{"ha":404,"x_min":18,"x_max":388,"o":"m 147 0 l 147 972 l 257 972 l 257 0 l 147 0 m 18 1058 l 18 1190 l 143 1190 l 143 1058 l 18 1058 m 263 1058 l 263 1190 l 388 1190 l 388 1058 l 263 1058 z "},"Ј":{"ha":768,"x_min":43,"x_max":646,"o":"m 343 -14 q 43 158 149 -14 l 122 226 q 220 122 169 156 q 344 88 271 88 q 482 148 429 88 q 535 321 535 208 l 535 972 l 646 972 l 646 322 q 557 67 646 156 q 343 -14 474 -14 z "},"Љ":{"ha":1604,"x_min":-7,"x_max":1542,"o":"m 119 -11 q -7 13 54 -11 l 15 101 q 101 88 46 88 q 151 97 129 88 q 204 147 174 106 q 254 259 235 188 q 288 469 274 331 q 303 796 303 607 l 303 972 l 918 972 l 918 596 l 1164 596 q 1437 525 1332 596 q 1542 310 1542 454 q 1444 83 1542 167 q 1181 0 1346 0 l 808 0 l 808 872 l 408 872 l 408 767 q 392 425 408 569 q 351 198 376 281 q 285 67 325 115 q 208 3 246 18 q 119 -11 169 -11 m 918 100 l 1178 100 q 1365 153 1297 100 q 1432 307 1432 206 q 1363 449 1432 400 q 1171 497 1294 497 l 918 497 l 918 100 z "},"Њ":{"ha":1603,"x_min":138,"x_max":1540,"o":"m 138 0 l 138 972 l 247 972 l 247 569 l 807 569 l 807 972 l 918 972 l 918 569 l 1190 569 q 1442 501 1344 569 q 1540 294 1540 432 q 1449 80 1540 160 q 1199 0 1357 0 l 807 0 l 807 468 l 247 468 l 247 0 l 138 0 m 918 100 l 1185 100 q 1365 149 1303 100 q 1428 294 1428 199 q 1364 428 1428 382 q 1179 474 1300 474 l 918 474 l 918 100 z "},"Ћ":{"ha":1225,"x_min":67,"x_max":1107,"o":"m 356 0 l 356 872 l 67 872 l 67 972 l 836 972 l 836 872 l 465 872 l 465 514 q 782 626 613 626 q 1017 551 928 626 q 1107 339 1107 476 l 1107 0 l 997 0 l 997 317 q 936 467 997 410 q 772 524 875 524 q 465 399 606 524 l 465 0 l 356 0 z "},"Ќ":{"ha":999,"x_min":138,"x_max":965,"o":"m 138 0 l 138 972 l 247 972 l 247 392 l 806 972 l 947 972 l 531 547 l 965 0 l 828 0 l 454 471 l 247 261 l 247 0 l 138 0 m 433 1058 l 565 1260 l 676 1208 l 519 1058 l 433 1058 z "},"Ў":{"ha":1013,"x_min":50,"x_max":963,"o":"m 281 -17 q 117 24 194 -17 l 160 111 q 283 82 214 82 q 478 228 401 82 l 50 972 l 175 972 l 533 338 l 843 972 l 963 972 l 578 204 q 281 -17 468 -17 m 665 1101 q 638 1077 665 1101 q 533 1053 611 1053 q 401 1101 456 1053 q 335 1224 347 1149 l 410 1239 q 533 1142 438 1142 q 657 1239 629 1142 l 732 1224 q 665 1101 719 1149 z "},"Џ":{"ha":1042,"x_min":138,"x_max":904,"o":"m 471 -217 l 471 0 l 138 0 l 138 972 l 247 972 l 247 100 l 794 100 l 794 972 l 904 972 l 904 0 l 581 0 l 581 -217 l 471 -217 z "},"А":{"ha":1097,"x_min":54,"x_max":1043,"o":"m 54 0 l 497 979 l 600 979 l 1043 0 l 925 0 l 811 257 l 282 257 l 167 0 l 54 0 m 325 356 l 768 356 l 547 851 l 325 356 z "},"Б":{"ha":983,"x_min":138,"x_max":904,"o":"m 138 0 l 138 972 l 835 972 l 835 872 l 247 872 l 247 574 l 535 574 q 801 502 699 574 q 904 290 904 431 q 808 75 904 150 q 546 0 711 0 l 138 0 m 247 100 l 538 100 q 794 296 794 100 q 725 431 794 386 q 532 476 656 476 l 247 476 l 247 100 z "},"В":{"ha":1003,"x_min":138,"x_max":922,"o":"m 138 0 l 138 972 l 551 972 q 806 886 722 972 q 868 728 868 821 q 714 503 868 569 q 922 265 922 440 q 826 71 922 142 q 569 0 731 0 l 138 0 m 246 99 l 572 99 q 747 145 683 99 q 811 275 811 192 q 745 399 811 356 q 553 442 679 442 l 246 442 l 246 99 m 246 539 l 533 539 q 696 585 635 539 q 757 715 757 631 q 701 831 757 789 q 542 874 644 874 l 246 874 l 246 539 z "},"Г":{"ha":818,"x_min":138,"x_max":758,"o":"m 138 0 l 138 972 l 758 972 l 758 872 l 247 872 l 247 0 l 138 0 z "},"Д":{"ha":1047,"x_min":14,"x_max":1024,"o":"m 14 -217 l 14 100 l 114 100 q 261 803 261 335 l 261 972 l 897 972 l 897 100 l 1024 100 l 1007 -217 l 915 -217 l 915 0 l 126 0 l 107 -217 l 14 -217 m 238 100 l 788 100 l 788 872 l 367 872 l 367 746 q 332 376 367 554 q 238 100 297 199 z "},"Е":{"ha":931,"x_min":138,"x_max":847,"o":"m 138 0 l 138 972 l 840 972 l 840 872 l 247 872 l 247 540 l 778 540 l 778 440 l 247 440 l 247 100 l 847 100 l 847 0 l 138 0 z "},"Ж":{"ha":1513,"x_min":33,"x_max":1479,"o":"m 33 0 l 433 556 l 58 972 l 194 972 l 701 399 l 701 972 l 811 972 l 811 399 l 1318 972 l 1454 972 l 1079 556 l 1479 0 l 1343 0 l 1003 474 l 811 261 l 811 0 l 701 0 l 701 261 l 508 474 l 169 0 l 33 0 z "},"З":{"ha":883,"x_min":54,"x_max":800,"o":"m 460 -17 q 54 140 226 -17 l 119 217 q 461 78 267 78 q 621 130 554 78 q 688 265 688 182 q 615 400 688 356 q 425 444 543 444 l 318 444 l 318 535 l 425 535 q 597 584 531 535 q 663 718 663 633 q 601 842 663 793 q 443 892 539 892 q 157 782 279 892 l 93 858 q 252 956 169 924 q 446 988 335 988 q 682 914 590 988 q 774 728 774 840 q 596 499 774 563 q 744 411 689 471 q 800 260 800 351 q 705 63 800 142 q 460 -17 610 -17 z "},"И":{"ha":1069,"x_min":138,"x_max":932,"o":"m 138 0 l 138 972 l 247 972 l 247 165 l 828 972 l 932 972 l 932 0 l 824 0 l 824 807 l 244 0 l 138 0 z "},"Й":{"ha":1069,"x_min":138,"x_max":932,"o":"m 138 0 l 138 972 l 247 972 l 247 165 l 828 972 l 932 972 l 932 0 l 824 0 l 824 807 l 244 0 l 138 0 m 674 1101 q 647 1077 674 1101 q 542 1053 619 1053 q 410 1101 464 1053 q 343 1224 356 1149 l 418 1239 q 542 1142 446 1142 q 665 1239 638 1142 l 740 1224 q 674 1101 728 1149 z "},"К":{"ha":999,"x_min":138,"x_max":965,"o":"m 138 0 l 138 972 l 247 972 l 247 392 l 806 972 l 947 972 l 531 547 l 965 0 l 828 0 l 454 471 l 247 261 l 247 0 l 138 0 z "},"Л":{"ha":1069,"x_min":-7,"x_max":932,"o":"m 119 -11 q -7 13 54 -11 l 15 101 q 101 88 46 88 q 151 97 129 88 q 204 147 174 106 q 254 259 235 188 q 288 469 274 331 q 303 796 303 607 l 303 972 l 932 972 l 932 0 l 822 0 l 822 872 l 408 872 l 408 767 q 392 425 408 569 q 351 198 376 281 q 285 67 325 115 q 208 3 246 18 q 119 -11 169 -11 z "},"М":{"ha":1206,"x_min":138,"x_max":1068,"o":"m 138 0 l 138 972 l 249 972 l 603 442 l 957 972 l 1068 972 l 1068 0 l 958 0 l 958 788 l 604 267 l 599 267 l 244 786 l 244 0 l 138 0 z "},"Н":{"ha":1056,"x_min":138,"x_max":918,"o":"m 138 0 l 138 972 l 247 972 l 247 540 l 808 540 l 808 972 l 918 972 l 918 0 l 808 0 l 808 438 l 247 438 l 247 0 l 138 0 z "},"О":{"ha":1181,"x_min":94,"x_max":1086,"o":"m 946 131 q 876 57 946 131 q 589 -17 806 -17 q 233 131 372 -17 q 94 486 94 278 q 235 841 94 693 q 592 989 375 989 q 947 842 808 989 q 1086 486 1086 694 q 946 131 1086 279 m 317 201 q 372 143 317 201 q 592 85 426 85 q 865 201 757 85 q 972 486 972 317 q 863 771 972 654 q 589 888 754 888 q 316 772 424 888 q 208 486 208 656 q 317 201 208 318 z "},"П":{"ha":1042,"x_min":138,"x_max":904,"o":"m 138 0 l 138 972 l 904 972 l 904 0 l 794 0 l 794 872 l 247 872 l 247 0 l 138 0 z "},"Р":{"ha":928,"x_min":138,"x_max":865,"o":"m 138 0 l 138 972 l 501 972 q 767 889 668 972 q 865 661 865 806 q 756 426 865 510 q 483 343 647 343 l 247 343 l 247 0 l 138 0 m 247 443 l 488 443 q 681 502 608 443 q 754 660 754 561 q 684 816 754 761 q 493 871 614 871 l 247 871 l 247 443 z "},"С":{"ha":1025,"x_min":94,"x_max":971,"o":"m 582 -17 q 233 128 372 -17 q 94 486 94 274 q 235 842 94 696 q 586 989 375 989 q 794 949 708 989 q 963 832 881 910 l 890 754 q 585 888 750 888 q 316 772 424 888 q 208 486 208 657 q 317 201 208 317 q 585 85 425 85 q 751 119 679 85 q 899 225 824 154 l 971 149 q 799 25 889 67 q 582 -17 708 -17 z "},"Т":{"ha":900,"x_min":68,"x_max":832,"o":"m 394 0 l 394 872 l 68 872 l 68 972 l 832 972 l 832 872 l 506 872 l 506 0 l 394 0 z "},"У":{"ha":1013,"x_min":50,"x_max":963,"o":"m 281 -17 q 117 24 194 -17 l 160 111 q 283 82 214 82 q 478 228 401 82 l 50 972 l 175 972 l 533 338 l 843 972 l 963 972 l 578 204 q 281 -17 468 -17 z "},"Ф":{"ha":1246,"x_min":76,"x_max":1169,"o":"m 568 -36 l 568 71 q 206 185 336 71 q 76 490 76 299 q 206 795 76 682 q 568 908 336 908 l 568 1004 l 678 1004 l 678 908 q 1040 795 910 908 q 1169 490 1169 682 q 1040 185 1169 299 q 678 71 910 71 l 678 -36 l 568 -36 m 568 171 l 568 808 q 289 726 388 808 q 190 489 190 643 q 289 253 190 335 q 568 171 388 171 m 678 171 q 957 253 858 171 q 1056 489 1056 335 q 957 726 1056 643 q 678 808 858 808 l 678 171 z "},"Х":{"ha":1007,"x_min":64,"x_max":943,"o":"m 64 0 l 438 496 l 78 972 l 207 972 l 506 575 l 801 972 l 929 972 l 569 497 l 943 0 l 813 0 l 501 418 l 190 0 l 64 0 z "},"Ц":{"ha":1063,"x_min":138,"x_max":1039,"o":"m 931 -217 l 931 0 l 138 0 l 138 972 l 247 972 l 247 100 l 803 100 l 803 972 l 913 972 l 913 100 l 1039 100 l 1022 -217 l 931 -217 z "},"Ч":{"ha":965,"x_min":101,"x_max":828,"o":"m 718 0 l 718 415 q 567 349 654 378 q 415 319 481 319 q 186 393 271 319 q 101 606 101 467 l 101 972 l 211 972 l 211 624 q 267 476 211 531 q 424 422 322 422 q 718 517 558 422 l 718 972 l 828 972 l 828 0 l 718 0 z "},"Ш":{"ha":1532,"x_min":138,"x_max":1394,"o":"m 138 0 l 138 972 l 247 972 l 247 100 l 711 100 l 711 972 l 821 972 l 821 100 l 1285 100 l 1285 972 l 1394 972 l 1394 0 l 138 0 z "},"Щ":{"ha":1544,"x_min":138,"x_max":1521,"o":"m 1413 -217 l 1413 0 l 138 0 l 138 972 l 247 972 l 247 100 l 711 100 l 711 972 l 821 972 l 821 100 l 1285 100 l 1285 972 l 1394 972 l 1394 100 l 1521 100 l 1504 -217 l 1413 -217 z "},"Ъ":{"ha":1113,"x_min":61,"x_max":1050,"o":"m 317 0 l 317 872 l 61 872 l 61 972 l 426 972 l 426 596 l 672 596 q 945 525 840 596 q 1050 310 1050 454 q 952 83 1050 167 q 689 0 854 0 l 317 0 m 426 100 l 686 100 q 873 153 806 100 q 940 307 940 206 q 872 449 940 400 q 679 497 803 497 l 426 497 l 426 100 z "},"Ы":{"ha":1243,"x_min":138,"x_max":1106,"o":"m 138 0 l 138 972 l 247 972 l 247 596 l 493 596 q 766 525 661 596 q 871 310 871 454 q 773 83 871 167 q 510 0 675 0 l 138 0 m 247 100 l 507 100 q 694 153 626 100 q 761 307 761 206 q 692 449 761 400 q 500 497 624 497 l 247 497 l 247 100 m 996 0 l 996 972 l 1106 972 l 1106 0 l 996 0 z "},"Ь":{"ha":933,"x_min":138,"x_max":871,"o":"m 138 0 l 138 972 l 247 972 l 247 596 l 493 596 q 766 525 661 596 q 871 310 871 454 q 773 83 871 167 q 510 0 675 0 l 138 0 m 247 100 l 507 100 q 694 153 626 100 q 761 307 761 206 q 692 449 761 400 q 500 497 624 497 l 247 497 l 247 100 z "},"Э":{"ha":1026,"x_min":51,"x_max":931,"o":"m 443 -17 q 226 27 318 -17 q 51 154 133 71 l 132 226 q 278 118 208 153 q 440 83 347 83 q 693 185 588 83 q 814 440 799 288 l 324 440 l 324 540 l 813 540 q 691 790 794 692 q 440 889 588 889 q 135 754 276 889 l 65 829 q 233 949 149 908 q 439 989 317 989 q 790 842 650 989 q 931 486 931 696 q 792 128 931 274 q 443 -17 653 -17 z "},"Ю":{"ha":1458,"x_min":138,"x_max":1364,"o":"m 901 -17 q 585 112 710 -17 q 444 439 460 240 l 247 439 l 247 0 l 138 0 l 138 972 l 247 972 l 247 539 l 444 539 q 588 861 461 733 q 904 989 715 989 q 1235 846 1107 989 q 1364 488 1364 703 q 1234 128 1364 272 q 901 -17 1104 -17 m 654 199 q 703 141 654 199 q 904 83 753 83 q 1153 198 1056 83 q 1251 486 1251 313 q 1152 773 1251 657 q 901 889 1053 889 q 653 774 750 889 q 556 486 556 660 q 654 199 556 315 z "},"Я":{"ha":1007,"x_min":58,"x_max":869,"o":"m 58 0 l 363 390 q 169 487 242 413 q 97 679 97 561 q 171 874 97 803 q 454 972 269 972 l 869 972 l 869 0 l 760 0 l 760 372 l 481 372 l 192 0 l 58 0 m 461 465 l 760 465 l 760 874 l 461 874 q 274 819 342 874 q 207 671 207 764 q 278 522 207 578 q 461 465 349 465 z "},"а":{"ha":804,"x_min":65,"x_max":697,"o":"m 333 -15 q 144 44 224 -15 q 65 211 65 104 q 149 385 65 324 q 372 446 232 446 q 592 415 483 446 l 592 438 q 536 582 592 532 q 379 632 481 632 q 161 581 274 632 l 129 668 q 390 729 263 729 q 622 650 543 729 q 697 439 697 575 l 697 0 l 592 0 l 592 107 q 333 -15 496 -15 m 354 71 q 524 125 454 71 q 593 264 593 179 l 593 331 q 383 361 488 361 q 229 322 285 361 q 174 214 174 282 q 226 110 174 149 q 354 71 278 71 z "},"б":{"ha":899,"x_min":93,"x_max":825,"o":"m 457 -17 q 192 92 292 -17 q 93 388 93 201 q 96 503 93 456 q 107 610 99 551 q 133 710 115 668 q 180 792 151 751 q 254 860 208 832 q 361 901 300 888 l 761 996 l 782 906 l 393 810 q 238 722 285 782 q 183 554 192 661 q 481 710 275 710 q 724 605 622 710 q 825 353 825 500 q 719 92 825 200 q 457 -17 614 -17 m 460 79 q 642 158 569 79 q 714 350 714 236 q 640 542 714 463 q 457 621 565 621 q 275 542 347 621 q 203 350 203 464 q 277 158 203 238 q 460 79 351 79 z "},"в":{"ha":814,"x_min":119,"x_max":740,"o":"m 119 0 l 119 718 l 467 718 q 638 669 574 718 q 701 539 701 621 q 582 374 701 424 q 740 196 740 331 q 669 53 740 106 q 479 0 599 0 l 119 0 m 226 92 l 465 92 q 586 124 542 92 q 631 213 631 156 q 584 294 631 265 q 451 324 538 324 l 226 324 l 226 92 m 226 410 l 447 410 q 553 440 514 410 q 593 525 593 469 q 556 599 593 571 q 450 626 518 626 l 226 626 l 226 410 z "},"г":{"ha":643,"x_min":119,"x_max":607,"o":"m 119 0 l 119 718 l 607 718 l 607 624 l 226 624 l 226 0 l 119 0 z "},"д":{"ha":835,"x_min":14,"x_max":807,"o":"m 14 -179 l 14 94 l 92 94 q 188 593 188 271 l 188 718 l 699 718 l 699 94 l 807 94 l 790 -179 l 701 -179 l 701 0 l 121 0 l 101 -179 l 14 -179 m 206 94 l 592 94 l 592 624 l 290 624 l 290 524 q 206 94 290 253 z "},"е":{"ha":822,"x_min":75,"x_max":754,"o":"m 433 -17 q 178 88 282 -17 q 75 358 75 193 q 174 624 75 515 q 419 733 272 733 q 664 625 574 733 q 754 353 754 517 q 753 315 754 332 l 183 315 q 266 141 194 206 q 436 76 338 76 q 663 178 565 76 l 729 118 q 433 -17 608 -17 m 183 401 l 646 401 q 577 574 636 506 q 417 643 518 643 q 260 575 325 643 q 183 401 194 507 z "},"ж":{"ha":1182,"x_min":28,"x_max":1154,"o":"m 28 0 l 322 411 l 43 718 l 172 718 l 538 301 l 538 718 l 644 718 l 644 301 l 1010 718 l 1139 718 l 860 411 l 1154 0 l 1029 0 l 790 335 l 644 175 l 644 0 l 538 0 l 538 175 l 392 335 l 153 0 l 28 0 z "},"з":{"ha":711,"x_min":50,"x_max":632,"o":"m 347 -17 q 50 90 182 -17 l 104 169 q 344 76 214 76 q 470 110 418 76 q 522 204 522 144 q 475 291 522 260 q 342 322 428 322 l 246 322 l 246 410 l 343 410 q 458 444 414 410 q 503 533 503 478 q 459 611 503 582 q 347 640 415 640 q 129 568 219 640 l 76 643 q 354 733 193 733 q 544 680 474 733 q 614 542 614 626 q 499 376 614 424 q 632 200 632 329 q 554 47 632 110 q 347 -17 476 -17 z "},"и":{"ha":876,"x_min":119,"x_max":757,"o":"m 119 0 l 119 718 l 226 718 l 226 150 l 653 718 l 757 718 l 757 0 l 650 0 l 650 568 l 222 0 l 119 0 z "},"й":{"ha":876,"x_min":119,"x_max":757,"o":"m 119 0 l 119 718 l 226 718 l 226 150 l 653 718 l 757 718 l 757 0 l 650 0 l 650 568 l 222 0 l 119 0 m 565 868 q 538 844 565 868 q 435 821 511 821 q 305 868 358 821 q 239 990 251 915 l 313 1006 q 435 908 340 908 q 557 1006 529 908 l 631 990 q 565 868 618 915 z "},"к":{"ha":788,"x_min":119,"x_max":760,"o":"m 119 0 l 119 718 l 226 718 l 226 304 l 619 718 l 751 718 l 451 407 l 760 0 l 633 0 l 378 329 l 226 174 l 226 0 l 119 0 z "},"л":{"ha":849,"x_min":-1,"x_max":729,"o":"m 85 -11 q -1 0 43 -11 l 11 92 q 63 82 43 82 q 113 90 93 82 q 155 130 132 97 q 190 222 178 163 q 212 392 203 282 q 221 658 221 501 l 221 718 l 729 718 l 729 0 l 622 0 l 622 624 l 322 624 l 322 607 q 310 328 322 443 q 278 147 297 213 q 226 46 260 82 q 162 -1 193 10 q 85 -11 131 -11 z "},"м":{"ha":979,"x_min":119,"x_max":860,"o":"m 119 0 l 119 718 l 221 718 l 489 340 l 757 718 l 860 718 l 860 0 l 751 0 l 751 547 l 486 183 l 224 547 l 224 0 l 119 0 z "},"н":{"ha":867,"x_min":119,"x_max":747,"o":"m 119 0 l 119 718 l 226 718 l 226 408 l 640 408 l 640 718 l 747 718 l 747 0 l 640 0 l 640 314 l 226 314 l 226 0 l 119 0 z "},"о":{"ha":897,"x_min":75,"x_max":824,"o":"m 715 94 q 661 39 715 94 q 447 -17 607 -17 q 181 93 288 -17 q 75 358 75 203 q 183 623 75 513 q 450 733 290 733 q 717 624 610 733 q 824 358 824 514 q 715 94 824 204 m 450 79 q 640 160 565 79 q 714 358 714 240 q 637 557 714 475 q 447 639 560 639 q 258 558 332 639 q 185 358 185 476 q 261 160 185 242 q 450 79 338 79 z "},"п":{"ha":861,"x_min":119,"x_max":742,"o":"m 119 0 l 119 718 l 742 718 l 742 0 l 635 0 l 635 624 l 226 624 l 226 0 l 119 0 z "},"р":{"ha":922,"x_min":119,"x_max":844,"o":"m 119 -222 l 119 718 l 226 718 l 226 574 q 501 733 335 733 q 742 631 639 733 q 844 358 844 529 q 742 88 844 190 q 501 -15 639 -15 q 226 138 332 -15 l 226 -222 l 119 -222 m 482 81 q 663 156 590 81 q 735 360 735 232 q 661 560 735 483 q 482 638 588 638 q 300 558 378 638 q 222 358 222 479 q 300 159 222 238 q 482 81 378 81 z "},"с":{"ha":793,"x_min":75,"x_max":736,"o":"m 443 -17 q 181 94 288 -17 q 75 358 75 204 q 181 623 75 513 q 443 733 288 733 q 731 606 610 733 l 663 533 q 442 639 563 639 q 259 558 333 639 q 185 358 185 476 q 260 160 185 242 q 449 79 336 79 q 665 188 564 79 l 736 122 q 443 -17 611 -17 z "},"т":{"ha":694,"x_min":36,"x_max":658,"o":"m 293 0 l 293 624 l 36 624 l 36 718 l 658 718 l 658 624 l 401 624 l 401 0 l 293 0 z "},"у":{"ha":821,"x_min":47,"x_max":771,"o":"m 231 -226 q 78 -190 153 -226 l 114 -106 q 226 -132 165 -132 q 308 -102 275 -132 q 374 3 342 -72 l 47 718 l 165 718 l 426 119 l 657 718 l 771 718 l 469 -24 q 368 -180 424 -133 q 231 -226 313 -226 z "},"ф":{"ha":1213,"x_min":81,"x_max":1132,"o":"m 551 -222 l 551 58 q 372 -15 465 -15 q 161 85 242 -15 q 81 361 81 186 q 161 633 81 533 q 372 733 242 733 q 551 656 465 733 l 551 972 l 660 972 l 660 656 q 839 733 746 733 q 1051 633 971 733 q 1132 358 1132 532 q 1051 85 1132 186 q 839 -15 969 -15 q 741 3 779 -15 q 660 58 703 22 l 660 -222 l 551 -222 m 394 79 q 551 150 485 79 l 551 567 q 394 638 485 638 q 243 563 294 638 q 192 356 192 488 q 394 79 192 79 m 818 79 q 1021 358 1021 79 q 969 563 1021 489 q 818 638 918 638 q 660 567 728 638 l 660 150 q 818 79 728 79 z "},"х":{"ha":797,"x_min":54,"x_max":743,"o":"m 54 0 l 336 365 l 65 718 l 188 718 l 400 440 l 613 718 l 732 718 l 460 368 l 743 0 l 619 0 l 397 293 l 174 0 l 54 0 z "},"ц":{"ha":872,"x_min":119,"x_max":844,"o":"m 739 -179 l 739 0 l 119 0 l 119 718 l 226 718 l 226 94 l 629 94 l 629 718 l 736 718 l 736 94 l 844 94 l 828 -179 l 739 -179 z "},"ч":{"ha":801,"x_min":97,"x_max":682,"o":"m 575 0 l 575 296 q 463 251 532 271 q 335 231 393 231 q 162 286 226 231 q 97 446 97 342 l 97 718 l 204 718 l 204 461 q 242 360 204 397 q 349 324 281 324 q 575 392 476 324 l 575 718 l 682 718 l 682 0 l 575 0 z "},"ш":{"ha":1261,"x_min":119,"x_max":1142,"o":"m 119 0 l 119 718 l 226 718 l 226 94 l 576 94 l 576 718 l 683 718 l 683 94 l 1033 94 l 1033 718 l 1142 718 l 1142 0 l 119 0 z "},"щ":{"ha":1278,"x_min":119,"x_max":1250,"o":"m 1144 -179 l 1144 0 l 119 0 l 119 718 l 226 718 l 226 94 l 576 94 l 576 718 l 683 718 l 683 94 l 1033 94 l 1033 718 l 1142 718 l 1142 94 l 1250 94 l 1233 -179 l 1144 -179 z "},"ъ":{"ha":872,"x_min":28,"x_max":826,"o":"m 244 0 l 244 624 l 28 624 l 28 718 l 351 718 l 351 449 l 543 449 q 747 395 668 449 q 826 233 826 342 q 753 63 826 126 q 556 0 679 0 l 244 0 m 351 94 l 546 94 q 673 129 628 94 q 718 231 718 164 q 672 324 718 292 q 542 357 625 357 l 351 357 l 351 94 z "},"ы":{"ha":1057,"x_min":119,"x_max":938,"o":"m 119 0 l 119 718 l 226 718 l 226 449 l 418 449 q 622 395 543 449 q 701 233 701 342 q 628 63 701 126 q 431 0 554 0 l 119 0 m 226 94 l 421 94 q 548 129 503 94 q 593 231 593 164 q 547 324 593 292 q 417 357 500 357 l 226 357 l 226 94 m 831 0 l 831 718 l 938 718 l 938 0 l 831 0 z "},"ь":{"ha":747,"x_min":119,"x_max":701,"o":"m 119 0 l 119 718 l 226 718 l 226 449 l 418 449 q 622 395 543 449 q 701 233 701 342 q 628 63 701 126 q 431 0 554 0 l 119 0 m 226 94 l 421 94 q 548 129 503 94 q 593 231 593 164 q 547 324 593 292 q 417 357 500 357 l 226 357 l 226 94 z "},"э":{"ha":793,"x_min":56,"x_max":718,"o":"m 350 -17 q 183 18 251 -17 q 56 122 114 53 l 126 189 q 343 76 229 76 q 521 146 446 76 q 607 317 596 215 l 279 317 l 279 407 l 606 407 q 522 572 594 504 q 349 640 449 640 q 126 533 226 640 l 64 603 q 356 733 181 733 q 615 622 511 733 q 718 356 718 511 q 611 93 718 203 q 350 -17 504 -17 z "},"ю":{"ha":1167,"x_min":119,"x_max":1093,"o":"m 736 -17 q 494 78 589 -17 q 386 315 400 172 l 226 315 l 226 0 l 119 0 l 119 718 l 226 718 l 226 406 l 386 406 q 498 640 403 546 q 739 733 593 733 q 995 625 897 733 q 1093 358 1093 517 q 994 93 1093 203 q 736 -17 896 -17 m 739 79 q 917 159 851 79 q 982 358 982 239 q 914 558 982 478 q 736 638 846 638 q 560 558 625 638 q 494 358 494 478 q 562 159 494 239 q 739 79 629 79 z "},"я":{"ha":811,"x_min":56,"x_max":692,"o":"m 56 0 l 275 278 q 137 354 190 297 q 83 494 83 411 q 156 656 83 594 q 354 718 228 718 l 692 718 l 692 0 l 585 0 l 585 261 l 386 261 q 300 147 374 244 q 188 0 226 50 l 56 0 m 363 351 l 585 351 l 585 624 l 360 624 q 235 588 281 624 q 190 490 190 553 q 238 389 190 426 q 363 351 286 351 z "},"ё":{"ha":822,"x_min":75,"x_max":754,"o":"m 433 -17 q 178 88 282 -17 q 75 358 75 193 q 174 624 75 515 q 419 733 272 733 q 664 625 574 733 q 754 353 754 517 q 753 315 754 332 l 183 315 q 266 141 194 206 q 436 76 338 76 q 663 178 565 76 l 729 118 q 433 -17 608 -17 m 183 401 l 646 401 q 577 574 636 506 q 417 643 518 643 q 260 575 325 643 q 183 401 194 507 m 226 826 l 226 958 l 351 958 l 351 826 l 226 826 m 471 826 l 471 958 l 596 958 l 596 826 l 471 826 z "},"ђ":{"ha":856,"x_min":8,"x_max":754,"o":"m 476 -17 q 335 11 401 -17 l 356 101 q 457 79 401 79 q 593 140 539 79 q 647 297 647 200 l 647 404 q 594 563 647 504 q 446 622 540 622 q 290 558 353 622 q 226 394 226 493 l 226 0 l 119 0 l 119 794 l 8 794 l 8 881 l 119 881 l 119 1014 l 226 1014 l 226 881 l 522 881 l 522 794 l 226 794 l 226 576 q 476 719 314 719 q 680 640 606 719 q 754 431 754 560 l 754 271 q 680 63 754 142 q 476 -17 606 -17 z "},"ѓ":{"ha":643,"x_min":119,"x_max":607,"o":"m 119 0 l 119 718 l 607 718 l 607 624 l 226 624 l 226 0 l 119 0 m 283 826 l 415 1028 l 526 976 l 369 826 l 283 826 z "},"є":{"ha":793,"x_min":74,"x_max":736,"o":"m 442 -17 q 181 93 288 -17 q 74 356 74 203 q 177 622 74 511 q 436 733 281 733 q 728 603 611 733 l 665 533 q 443 640 565 640 q 270 572 343 640 q 186 407 197 504 l 513 407 l 513 317 l 185 317 q 271 146 196 215 q 449 76 346 76 q 665 189 563 76 l 736 122 q 609 18 678 53 q 442 -17 540 -17 z "},"ѕ":{"ha":692,"x_min":60,"x_max":613,"o":"m 357 -14 q 199 15 279 -14 q 60 92 119 43 l 114 168 q 363 76 236 76 q 469 108 428 76 q 511 193 511 140 q 466 268 511 242 q 332 319 421 294 q 246 347 278 335 q 174 383 214 360 q 114 441 133 406 q 94 525 94 476 q 163 674 94 617 q 339 731 232 731 q 597 651 478 731 l 549 571 q 336 640 442 640 q 235 610 274 640 q 197 533 197 581 q 208 497 197 514 q 233 469 219 481 q 277 446 247 458 q 325 428 307 433 q 382 410 343 422 q 467 381 433 394 q 538 343 500 367 q 594 284 575 319 q 613 201 613 249 q 540 44 613 101 q 357 -14 468 -14 z "},"і":{"ha":365,"x_min":122,"x_max":244,"o":"m 129 0 l 129 718 l 236 718 l 236 0 l 129 0 m 122 875 l 122 993 l 244 993 l 244 875 l 122 875 z "},"ї":{"ha":365,"x_min":-1,"x_max":368,"o":"m -1 826 l -1 958 l 124 958 l 124 826 l -1 826 m 243 826 l 243 958 l 368 958 l 368 826 l 243 826 m 129 0 l 129 718 l 236 718 l 236 0 l 129 0 z "},"ј":{"ha":365,"x_min":-6,"x_max":244,"o":"m 61 -226 q -6 -219 24 -226 l -6 -132 q 47 -136 19 -136 q 129 -40 129 -136 l 129 718 l 236 718 l 236 -42 q 190 -181 236 -135 q 61 -226 144 -226 m 122 875 l 122 993 l 244 993 l 244 875 l 122 875 z "},"љ":{"ha":1250,"x_min":-1,"x_max":1204,"o":"m 85 -11 q -1 0 43 -11 l 11 92 q 63 82 43 82 q 113 90 93 82 q 155 130 132 97 q 190 222 178 163 q 212 392 203 282 q 221 658 221 501 l 221 718 l 729 718 l 729 449 l 921 449 q 1125 395 1046 449 q 1204 233 1204 342 q 1131 63 1204 126 q 933 0 1057 0 l 622 0 l 622 624 l 322 624 l 322 607 q 310 328 322 443 q 278 147 297 213 q 226 46 260 82 q 162 -1 193 10 q 85 -11 131 -11 m 729 94 l 924 94 q 1051 129 1006 94 q 1096 231 1096 164 q 1049 324 1096 292 q 919 357 1003 357 l 729 357 l 729 94 z "},"њ":{"ha":1267,"x_min":119,"x_max":1221,"o":"m 119 0 l 119 718 l 226 718 l 226 443 l 640 443 l 640 718 l 747 718 l 747 443 l 940 443 q 1142 390 1064 443 q 1221 229 1221 338 q 1148 61 1221 122 q 953 0 1075 0 l 640 0 l 640 350 l 226 350 l 226 0 l 119 0 m 747 94 l 943 94 q 1069 128 1024 94 q 1114 228 1114 163 q 1068 320 1114 289 q 939 351 1022 351 l 747 351 l 747 94 z "},"ћ":{"ha":856,"x_min":8,"x_max":747,"o":"m 119 0 l 119 794 l 8 794 l 8 881 l 119 881 l 119 1014 l 226 1014 l 226 881 l 522 881 l 522 794 l 226 794 l 226 579 q 472 719 311 719 q 674 641 600 719 q 747 432 747 563 l 747 0 l 640 0 l 640 406 q 588 565 640 507 q 442 622 536 622 q 288 560 349 622 q 226 397 226 497 l 226 0 l 119 0 z "},"ќ":{"ha":788,"x_min":119,"x_max":760,"o":"m 119 0 l 119 718 l 226 718 l 226 304 l 619 718 l 751 718 l 451 407 l 760 0 l 633 0 l 378 329 l 226 174 l 226 0 l 119 0 m 356 826 l 488 1028 l 599 976 l 442 826 l 356 826 z "},"ў":{"ha":821,"x_min":47,"x_max":771,"o":"m 231 -226 q 78 -190 153 -226 l 114 -106 q 226 -132 165 -132 q 308 -102 275 -132 q 374 3 342 -72 l 47 718 l 165 718 l 426 119 l 657 718 l 771 718 l 469 -24 q 368 -180 424 -133 q 231 -226 313 -226 m 556 868 q 530 844 556 868 q 426 821 503 821 q 297 868 350 821 q 231 990 243 915 l 304 1006 q 426 908 332 908 q 549 1006 521 908 l 622 990 q 556 868 610 915 z "},"џ":{"ha":864,"x_min":119,"x_max":744,"o":"m 383 -179 l 383 0 l 119 0 l 119 718 l 226 718 l 226 94 l 638 94 l 638 718 l 744 718 l 744 0 l 489 0 l 489 -179 l 383 -179 z "},"Ґ":{"ha":818,"x_min":138,"x_max":758,"o":"m 138 0 l 138 972 l 646 972 l 646 1189 l 740 1189 l 758 872 l 247 872 l 247 0 l 138 0 z "},"ґ":{"ha":643,"x_min":119,"x_max":607,"o":"m 119 0 l 119 718 l 501 718 l 501 897 l 590 897 l 607 624 l 226 624 l 226 0 l 119 0 z "},"–":{"ha":733,"x_min":90,"x_max":643,"o":"m 90 364 l 90 471 l 643 471 l 643 364 l 90 364 z "},"—":{"ha":1247,"x_min":90,"x_max":1157,"o":"m 90 364 l 90 471 l 1157 471 l 1157 364 l 90 364 z "},"‘":{"ha":340,"x_min":100,"x_max":269,"o":"m 100 664 l 100 789 q 136 917 100 872 q 253 979 172 961 l 269 931 q 176 821 176 897 l 176 810 l 228 810 l 228 664 l 100 664 z "},"’":{"ha":340,"x_min":71,"x_max":242,"o":"m 88 657 l 71 706 q 164 813 164 740 l 164 826 l 114 826 l 114 972 l 242 972 l 242 847 q 205 719 242 764 q 88 657 168 675 z "},"‚":{"ha":340,"x_min":64,"x_max":235,"o":"m 81 -169 l 64 -121 q 157 -14 157 -86 l 157 0 l 107 0 l 107 146 l 235 146 l 235 21 q 198 -107 235 -62 q 81 -169 161 -151 z "},"“":{"ha":618,"x_min":100,"x_max":547,"o":"m 100 664 l 100 789 q 136 917 100 872 q 253 979 172 961 l 269 931 q 176 821 176 897 l 176 810 l 228 810 l 228 664 l 100 664 m 378 664 l 378 789 q 414 917 378 872 q 531 979 450 961 l 547 931 q 454 821 454 897 l 454 810 l 504 810 l 504 664 l 378 664 z "},"”":{"ha":618,"x_min":71,"x_max":518,"o":"m 88 657 l 71 706 q 164 813 164 740 l 164 826 l 114 826 l 114 972 l 242 972 l 242 847 q 205 719 242 764 q 88 657 168 675 m 365 657 l 349 706 q 442 813 442 740 l 442 826 l 392 826 l 392 972 l 518 972 l 518 847 q 482 719 518 764 q 365 657 446 675 z "},"„":{"ha":618,"x_min":64,"x_max":511,"o":"m 81 -169 l 64 -121 q 157 -14 157 -86 l 157 0 l 107 0 l 107 146 l 235 146 l 235 21 q 198 -107 235 -62 q 81 -169 161 -151 m 358 -169 l 342 -121 q 435 -14 435 -86 l 435 0 l 385 0 l 385 146 l 511 146 l 511 21 q 475 -107 511 -62 q 358 -169 439 -151 z "},"†":{"ha":569,"x_min":83,"x_max":486,"o":"m 247 331 l 256 722 l 83 711 l 83 788 l 254 776 l 242 972 l 328 972 l 315 776 l 486 788 l 486 711 l 314 722 l 322 331 l 247 331 z "},"‡":{"ha":597,"x_min":97,"x_max":500,"o":"m 256 0 l 268 196 l 97 185 l 97 261 l 269 250 l 261 486 l 269 722 l 97 711 l 97 788 l 268 776 l 256 972 l 342 972 l 329 776 l 500 788 l 500 711 l 328 722 l 336 486 l 328 250 l 500 261 l 500 185 l 329 196 l 342 0 l 256 0 z "},"•":{"ha":664,"x_min":150,"x_max":514,"o":"m 460 360 q 434 333 460 360 q 332 307 407 307 q 203 360 257 307 q 150 490 150 414 q 204 618 150 565 q 332 671 258 671 q 460 617 406 671 q 514 488 514 564 q 460 360 514 413 z "},"…":{"ha":1004,"x_min":107,"x_max":899,"o":"m 107 0 l 107 143 l 231 143 l 231 0 l 107 0 m 440 0 l 440 143 l 564 143 l 564 0 l 440 0 m 774 0 l 774 143 l 899 143 l 899 0 l 774 0 z "},"‰":{"ha":1682,"x_min":72,"x_max":1608,"o":"m 172 0 l 886 972 l 985 972 l 272 0 l 172 0 m 864 -11 q 707 62 768 -11 q 646 238 646 135 q 708 413 646 339 q 867 486 771 486 q 1024 413 963 486 q 1085 238 1085 340 q 1023 62 1085 135 q 864 -11 961 -11 m 867 67 q 958 115 924 67 q 993 238 993 164 q 956 359 993 310 q 864 408 918 408 q 773 359 808 408 q 738 238 738 310 q 775 116 738 165 q 867 67 813 67 m 1388 -11 q 1231 62 1292 -11 q 1169 238 1169 135 q 1232 413 1169 339 q 1390 486 1294 486 q 1547 413 1486 486 q 1608 238 1608 340 q 1547 62 1608 135 q 1388 -11 1485 -11 m 1390 67 q 1482 115 1447 67 q 1517 238 1517 164 q 1479 359 1517 310 q 1388 408 1442 408 q 1297 359 1332 408 q 1261 238 1261 310 q 1299 116 1261 165 q 1390 67 1336 67 m 450 560 q 419 523 450 560 q 292 486 388 486 q 134 559 196 486 q 72 735 72 632 q 135 910 72 836 q 294 983 197 983 q 451 910 390 983 q 513 735 513 838 q 450 560 513 633 m 294 564 q 385 613 350 564 q 421 735 421 663 q 383 856 421 807 q 292 906 346 906 q 201 856 236 906 q 165 735 165 807 q 203 613 165 663 q 294 564 240 564 z "},"‹":{"ha":456,"x_min":67,"x_max":374,"o":"m 292 57 l 67 354 l 67 365 l 292 661 l 374 615 l 186 361 l 374 104 l 292 57 z "},"›":{"ha":456,"x_min":82,"x_max":388,"o":"m 163 57 l 82 103 l 269 358 l 82 614 l 163 661 l 388 365 l 388 354 l 163 57 z "},"⁄":{"ha":596,"x_min":-94,"x_max":660,"o":"m -94 -136 l 554 1053 l 660 1053 l 11 -136 l -94 -136 z "},"€":{"ha":1000,"x_min":78,"x_max":928,"o":"m 597 -17 q 347 78 451 -17 q 204 329 242 172 l 78 329 l 78 417 l 190 417 q 188 486 188 439 q 193 567 188 535 l 78 567 l 78 653 l 208 653 q 351 896 249 803 q 590 989 454 989 q 925 799 797 989 l 842 739 q 728 853 786 817 q 586 890 671 890 q 425 825 496 890 q 321 653 354 760 l 678 653 l 678 567 l 303 567 q 297 486 297 538 q 300 417 297 461 l 678 417 l 678 329 l 318 329 q 425 149 350 215 q 601 82 500 82 q 737 122 679 82 q 849 242 794 163 l 928 186 q 785 37 864 90 q 597 -17 707 -17 z "},"№":{"ha":1440,"x_min":138,"x_max":1357,"o":"m 138 0 l 138 972 l 251 972 l 765 199 l 765 972 l 874 972 l 874 0 l 775 0 l 247 792 l 247 0 l 138 0 m 993 224 l 993 301 l 1342 301 l 1342 224 l 993 224 m 1168 400 q 1033 456 1086 400 q 979 593 979 513 q 1033 731 979 674 q 1169 788 1088 788 q 1303 731 1250 788 q 1357 594 1357 675 q 1303 457 1357 514 q 1168 400 1249 400 m 1169 471 q 1248 506 1218 471 q 1278 594 1278 542 q 1247 681 1278 646 q 1168 717 1215 717 q 1089 681 1119 717 q 1058 593 1058 646 q 1090 506 1058 542 q 1169 471 1122 471 z "},"℗":{"ha":1153,"x_min":74,"x_max":1079,"o":"m 932 131 q 858 57 932 131 q 575 -17 785 -17 q 219 131 365 -17 q 74 486 74 278 q 221 841 74 693 q 578 989 368 989 q 933 842 788 989 q 1079 486 1079 694 q 932 131 1079 279 m 575 26 q 901 162 769 26 q 1033 489 1033 297 q 902 813 1033 679 q 578 946 771 946 q 251 810 383 946 q 119 483 119 675 q 251 160 119 293 q 575 26 382 26 m 406 239 l 406 754 l 608 754 q 754 710 700 754 q 808 585 808 665 q 748 458 808 503 q 599 413 688 413 l 483 413 l 483 239 l 406 239 m 483 482 l 600 482 q 695 509 660 482 q 731 586 731 536 q 601 685 731 685 l 483 685 l 483 482 z "},"™":{"ha":958,"x_min":36,"x_max":900,"o":"m 174 544 l 174 914 l 36 914 l 36 972 l 372 972 l 372 914 l 235 914 l 235 544 l 174 544 m 467 544 l 467 972 l 532 972 l 685 738 l 836 972 l 900 972 l 900 544 l 840 544 l 840 872 l 688 640 l 679 640 l 528 872 l 528 544 l 467 544 z "},"∂":{"ha":694,"x_min":0,"x_max":694,"o":"m 0 0 l 0 972 l 694 972 l 694 0 l 0 0 m 113 68 l 583 68 l 347 422 l 113 68 m 68 133 l 306 486 l 68 839 l 68 133 m 625 133 l 625 839 l 388 486 l 625 133 m 347 549 l 583 903 l 113 903 l 347 549 z "},"∆":{"ha":1089,"x_min":61,"x_max":1028,"o":"m 61 0 l 492 978 l 597 978 l 1028 0 l 61 0 m 222 100 l 864 100 l 544 849 l 222 100 z "},"∏":{"ha":694,"x_min":0,"x_max":694,"o":"m 0 0 l 0 972 l 694 972 l 694 0 l 0 0 m 113 68 l 583 68 l 347 422 l 113 68 m 68 133 l 306 486 l 68 839 l 68 133 m 625 133 l 625 839 l 388 486 l 625 133 m 347 549 l 583 903 l 113 903 l 347 549 z "},"∑":{"ha":694,"x_min":0,"x_max":694,"o":"m 0 0 l 0 972 l 694 972 l 694 0 l 0 0 m 113 68 l 583 68 l 347 422 l 113 68 m 68 133 l 306 486 l 68 839 l 68 133 m 625 133 l 625 839 l 388 486 l 625 133 m 347 549 l 583 903 l 113 903 l 347 549 z "},"−":{"ha":889,"x_min":124,"x_max":765,"o":"m 124 439 l 124 542 l 765 542 l 765 439 l 124 439 z "},"√":{"ha":700,"x_min":-8,"x_max":731,"o":"m 328 -272 l 92 208 l 13 183 l -8 261 l 138 308 l 349 -126 l 639 1094 l 731 1094 q 400 -247 692 939 l 328 -272 z "},"∞":{"ha":1049,"x_min":57,"x_max":992,"o":"m 261 279 q 113 340 169 279 q 57 492 57 400 q 113 646 57 583 q 258 708 168 708 q 334 696 297 708 q 409 653 371 683 q 466 606 447 624 q 525 549 485 589 q 568 591 532 556 q 618 638 604 626 q 663 671 632 649 q 724 701 694 693 q 786 708 753 708 q 935 647 878 708 q 992 492 992 585 q 938 338 992 397 q 789 279 883 279 q 654 319 717 279 q 525 428 592 360 q 392 318 432 342 q 261 279 328 279 m 261 371 q 465 490 349 371 q 433 519 464 492 q 390 556 401 547 q 351 584 378 565 q 302 610 324 603 q 258 617 281 617 q 178 580 208 617 q 147 492 147 543 q 178 404 147 438 q 261 371 208 371 m 790 371 q 873 406 843 371 q 903 492 903 440 q 872 582 903 547 q 786 617 840 617 q 585 490 707 617 q 647 433 625 451 q 710 392 668 414 q 790 371 753 371 z "},"∫":{"ha":694,"x_min":0,"x_max":694,"o":"m 0 0 l 0 972 l 694 972 l 694 0 l 0 0 m 113 68 l 583 68 l 347 422 l 113 68 m 68 133 l 306 486 l 68 839 l 68 133 m 625 133 l 625 839 l 388 486 l 625 133 m 347 549 l 583 903 l 113 903 l 347 549 z "},"≈":{"ha":889,"x_min":75,"x_max":811,"o":"m 144 257 l 75 264 q 250 463 106 463 q 447 413 313 463 q 631 364 582 364 q 705 393 676 364 q 742 468 733 422 q 811 461 764 467 q 757 322 801 379 q 636 265 713 265 q 438 315 574 265 q 254 364 301 364 q 182 333 211 364 q 144 257 153 301 m 144 506 l 75 513 q 250 711 106 711 q 447 662 311 711 q 631 613 582 613 q 705 642 676 613 q 742 717 733 671 q 811 710 764 715 q 757 571 801 628 q 636 514 713 514 q 438 563 575 514 q 254 613 300 613 q 182 581 211 613 q 144 506 153 550 z "},"≠":{"ha":889,"x_min":124,"x_max":764,"o":"m 292 104 l 207 149 l 274 275 l 124 275 l 124 378 l 328 378 l 444 599 l 124 599 l 124 703 l 497 703 q 542 786 510 725 q 592 881 575 847 l 676 838 q 637 764 663 811 q 604 703 611 717 l 764 703 l 764 599 l 551 599 l 435 378 l 764 378 l 764 275 l 381 275 q 292 104 322 161 z "},"≤":{"ha":889,"x_min":100,"x_max":789,"o":"m 100 0 l 100 97 l 789 97 l 789 0 l 100 0 m 789 153 q 100 414 156 393 l 100 524 q 789 785 156 544 l 789 675 l 219 469 q 789 263 668 306 l 789 153 z "},"≥":{"ha":889,"x_min":100,"x_max":789,"o":"m 100 0 l 100 97 l 789 97 l 789 0 l 100 0 m 101 153 l 101 263 q 669 469 360 356 l 101 675 l 101 785 q 789 524 560 610 l 789 414 q 101 153 560 328 z "},"◊":{"ha":889,"x_min":154,"x_max":735,"o":"m 394 -49 l 154 494 l 394 1038 l 492 1038 l 735 494 l 492 -49 l 394 -49 m 444 57 q 631 494 506 203 q 444 931 479 847 l 260 494 q 444 57 382 203 z "},"":{"ha":694,"x_min":149,"x_max":546,"o":"m 479 869 q 452 845 479 869 q 347 821 425 821 q 215 869 269 821 q 149 992 161 917 l 224 1007 q 347 910 251 910 q 471 1007 443 910 l 546 992 q 479 869 533 917 z "},"":{"ha":694,"x_min":151,"x_max":543,"o":"m 477 868 q 450 844 477 868 q 347 821 424 821 q 217 868 271 821 q 151 990 164 915 l 225 1006 q 347 908 253 908 q 469 1006 442 908 l 543 990 q 477 868 531 915 z "},"":{"ha":694,"x_min":0,"x_max":694,"o":"m 0 0 l 0 972 l 694 972 l 694 0 l 0 0 m 113 68 l 583 68 l 347 422 l 113 68 m 68 133 l 306 486 l 68 839 l 68 133 m 625 133 l 625 839 l 388 486 l 625 133 m 347 549 l 583 903 l 113 903 l 347 549 z "},"ﬀ":{"ha":1021,"x_min":61,"x_max":1004,"o":"m 160 0 l 160 624 l 61 624 l 61 717 l 160 717 l 160 779 q 222 964 160 901 q 376 1019 278 1019 q 494 1001 444 1019 l 494 908 q 390 926 431 926 q 265 774 265 926 l 265 715 l 493 715 l 493 624 l 267 624 l 267 0 l 160 0 m 671 0 l 671 624 l 572 624 l 572 717 l 671 717 l 671 779 q 732 964 671 903 q 886 1019 790 1019 q 1004 1001 956 1019 l 1004 908 q 901 926 943 926 q 776 774 776 926 l 776 715 l 1003 715 l 1003 624 l 776 624 l 776 0 l 671 0 z "},"ﬁ":{"ha":876,"x_min":61,"x_max":754,"o":"m 160 0 l 160 624 l 61 624 l 61 717 l 160 717 l 160 779 q 222 964 160 901 q 376 1019 278 1019 q 494 1001 444 1019 l 494 908 q 390 926 431 926 q 265 774 265 926 l 265 715 l 493 715 l 493 624 l 267 624 l 267 0 l 160 0 m 640 0 l 640 718 l 746 718 l 746 0 l 640 0 m 632 875 l 632 993 l 754 993 l 754 875 l 632 875 z "},"ﬂ":{"ha":876,"x_min":61,"x_max":746,"o":"m 160 0 l 160 624 l 61 624 l 61 717 l 160 717 l 160 779 q 222 964 160 901 q 376 1019 278 1019 q 494 1001 444 1019 l 494 908 q 390 926 431 926 q 265 774 265 926 l 265 715 l 493 715 l 493 624 l 267 624 l 267 0 l 160 0 m 640 0 l 640 1014 l 746 1014 l 746 0 l 640 0 z "},"ﬃ":{"ha":1386,"x_min":61,"x_max":1264,"o":"m 160 0 l 160 624 l 61 624 l 61 717 l 160 717 l 160 779 q 222 964 160 901 q 376 1019 278 1019 q 494 1001 444 1019 l 494 908 q 390 926 431 926 q 265 774 265 926 l 265 715 l 493 715 l 493 624 l 267 624 l 267 0 l 160 0 m 671 0 l 671 624 l 572 624 l 572 717 l 671 717 l 671 779 q 732 964 671 903 q 886 1019 790 1019 q 1004 1001 956 1019 l 1004 908 q 901 926 943 926 q 776 774 776 926 l 776 715 l 1003 715 l 1003 624 l 776 624 l 776 0 l 671 0 m 1150 0 l 1150 718 l 1257 718 l 1257 0 l 1150 0 m 1143 875 l 1143 993 l 1264 993 l 1264 875 l 1143 875 z "},"ﬄ":{"ha":1386,"x_min":61,"x_max":1257,"o":"m 160 0 l 160 624 l 61 624 l 61 717 l 160 717 l 160 779 q 222 964 160 901 q 376 1019 278 1019 q 494 1001 444 1019 l 494 908 q 390 926 431 926 q 265 774 265 926 l 265 715 l 493 715 l 493 624 l 267 624 l 267 0 l 160 0 m 671 0 l 671 624 l 572 624 l 572 717 l 671 717 l 671 779 q 732 964 671 903 q 886 1019 790 1019 q 1004 1001 956 1019 l 1004 908 q 901 926 943 926 q 776 774 776 926 l 776 715 l 1003 715 l 1003 624 l 776 624 l 776 0 l 671 0 m 1150 0 l 1150 1014 l 1257 1014 l 1257 0 l 1150 0 z "}}}
